<mxfile host="app.diagrams.net" modified="2023-11-07T05:33:31.306Z" agent="Mozilla/5.0 (Windows NT 10.0; Win64; x64) AppleWebKit/537.36 (KHTML, like Gecko) Chrome/116.0.5845.931 YaBrowser/23.9.3.931 Yowser/2.5 Safari/537.36" etag="i4xZFRBzTTgrnrI1vw4_" version="22.0.8" type="device" pages="3">
  <diagram name="Страница — 1" id="0P6mlTWQrHOYITtnohry">
    <mxGraphModel dx="2163" dy="767" grid="1" gridSize="10" guides="1" tooltips="1" connect="1" arrows="1" fold="1" page="1" pageScale="1" pageWidth="827" pageHeight="1169" math="0" shadow="0">
      <root>
        <mxCell id="0" />
        <mxCell id="1" parent="0" />
        <mxCell id="_VH_vWUhsZV4mzXmtiTr-4" value="graphics_lib" style="shape=folder;fontStyle=1;spacingTop=10;tabWidth=40;tabHeight=14;tabPosition=left;html=1;whiteSpace=wrap;verticalAlign=top;" parent="1" vertex="1">
          <mxGeometry x="-20" y="130" width="270" height="350" as="geometry" />
        </mxCell>
        <mxCell id="_VH_vWUhsZV4mzXmtiTr-11" value="shape_drawing_lib" style="shape=folder;fontStyle=1;spacingTop=10;tabWidth=40;tabHeight=14;tabPosition=left;html=1;whiteSpace=wrap;verticalAlign=top;" parent="1" vertex="1">
          <mxGeometry x="385" y="110" width="650" height="520" as="geometry" />
        </mxCell>
        <mxCell id="_VH_vWUhsZV4mzXmtiTr-41" value="modern_graphics_lib" style="shape=folder;fontStyle=1;spacingTop=10;tabWidth=40;tabHeight=14;tabPosition=left;html=1;whiteSpace=wrap;verticalAlign=top;" parent="1" vertex="1">
          <mxGeometry x="-150" y="530" width="340" height="370" as="geometry" />
        </mxCell>
        <mxCell id="_VH_vWUhsZV4mzXmtiTr-60" value="app" style="shape=folder;fontStyle=1;spacingTop=10;tabWidth=40;tabHeight=14;tabPosition=left;html=1;whiteSpace=wrap;verticalAlign=top;" parent="1" vertex="1">
          <mxGeometry x="747" y="678" width="340" height="370" as="geometry" />
        </mxCell>
        <mxCell id="_VH_vWUhsZV4mzXmtiTr-5" value="&lt;p style=&quot;margin:0px;margin-top:4px;text-align:center;&quot;&gt;&lt;i&gt;&amp;lt;&amp;lt;Interface&amp;gt;&amp;gt;&lt;/i&gt;&lt;br&gt;&lt;b&gt;ICanvas&lt;/b&gt;&lt;br&gt;&lt;/p&gt;&lt;hr size=&quot;1&quot;&gt;&lt;p style=&quot;margin:0px;margin-left:4px;&quot;&gt;&lt;span style=&quot;background-color: initial;&quot;&gt;+ MoveTo(x: int, y: int)&lt;/span&gt;&lt;br&gt;&lt;/p&gt;&lt;p style=&quot;margin:0px;margin-left:4px;&quot;&gt;+ LineTo(x: int, y: int)&lt;/p&gt;" style="verticalAlign=top;align=left;overflow=fill;fontSize=12;fontFamily=Helvetica;html=1;whiteSpace=wrap;" parent="1" vertex="1">
          <mxGeometry x="20" y="190" width="190" height="90" as="geometry" />
        </mxCell>
        <mxCell id="_VH_vWUhsZV4mzXmtiTr-6" value="CCanvas" style="swimlane;fontStyle=0;childLayout=stackLayout;horizontal=1;startSize=26;fillColor=none;horizontalStack=0;resizeParent=1;resizeParentMax=0;resizeLast=0;collapsible=1;marginBottom=0;whiteSpace=wrap;html=1;" parent="1" vertex="1">
          <mxGeometry x="90" y="330" width="140" height="78" as="geometry" />
        </mxCell>
        <mxCell id="_VH_vWUhsZV4mzXmtiTr-7" value="+ MoveTo(x: int, y: int)" style="text;strokeColor=none;fillColor=none;align=left;verticalAlign=top;spacingLeft=4;spacingRight=4;overflow=hidden;rotatable=0;points=[[0,0.5],[1,0.5]];portConstraint=eastwest;whiteSpace=wrap;html=1;" parent="_VH_vWUhsZV4mzXmtiTr-6" vertex="1">
          <mxGeometry y="26" width="140" height="26" as="geometry" />
        </mxCell>
        <mxCell id="_VH_vWUhsZV4mzXmtiTr-8" value="+ LineTo(x: int, y: int)" style="text;strokeColor=none;fillColor=none;align=left;verticalAlign=top;spacingLeft=4;spacingRight=4;overflow=hidden;rotatable=0;points=[[0,0.5],[1,0.5]];portConstraint=eastwest;whiteSpace=wrap;html=1;" parent="_VH_vWUhsZV4mzXmtiTr-6" vertex="1">
          <mxGeometry y="52" width="140" height="26" as="geometry" />
        </mxCell>
        <mxCell id="_VH_vWUhsZV4mzXmtiTr-10" value="" style="endArrow=block;dashed=1;endFill=0;endSize=12;html=1;rounded=0;exitX=0.5;exitY=0;exitDx=0;exitDy=0;entryX=0.5;entryY=1;entryDx=0;entryDy=0;" parent="1" source="_VH_vWUhsZV4mzXmtiTr-6" target="_VH_vWUhsZV4mzXmtiTr-5" edge="1">
          <mxGeometry width="160" relative="1" as="geometry">
            <mxPoint x="330" y="260" as="sourcePoint" />
            <mxPoint x="490" y="260" as="targetPoint" />
          </mxGeometry>
        </mxCell>
        <mxCell id="_VH_vWUhsZV4mzXmtiTr-12" value="Point" style="swimlane;fontStyle=0;childLayout=stackLayout;horizontal=1;startSize=26;fillColor=none;horizontalStack=0;resizeParent=1;resizeParentMax=0;resizeLast=0;collapsible=1;marginBottom=0;whiteSpace=wrap;html=1;" parent="1" vertex="1">
          <mxGeometry x="600" y="160" width="140" height="78" as="geometry" />
        </mxCell>
        <mxCell id="_VH_vWUhsZV4mzXmtiTr-13" value="+ x: int" style="text;strokeColor=none;fillColor=none;align=left;verticalAlign=top;spacingLeft=4;spacingRight=4;overflow=hidden;rotatable=0;points=[[0,0.5],[1,0.5]];portConstraint=eastwest;whiteSpace=wrap;html=1;" parent="_VH_vWUhsZV4mzXmtiTr-12" vertex="1">
          <mxGeometry y="26" width="140" height="26" as="geometry" />
        </mxCell>
        <mxCell id="_VH_vWUhsZV4mzXmtiTr-14" value="+ y: int" style="text;strokeColor=none;fillColor=none;align=left;verticalAlign=top;spacingLeft=4;spacingRight=4;overflow=hidden;rotatable=0;points=[[0,0.5],[1,0.5]];portConstraint=eastwest;whiteSpace=wrap;html=1;" parent="_VH_vWUhsZV4mzXmtiTr-12" vertex="1">
          <mxGeometry y="52" width="140" height="26" as="geometry" />
        </mxCell>
        <mxCell id="_VH_vWUhsZV4mzXmtiTr-42" value="CPoint" style="swimlane;fontStyle=0;childLayout=stackLayout;horizontal=1;startSize=26;fillColor=none;horizontalStack=0;resizeParent=1;resizeParentMax=0;resizeLast=0;collapsible=1;marginBottom=0;whiteSpace=wrap;html=1;" parent="1" vertex="1">
          <mxGeometry x="-60" y="600" width="140" height="78" as="geometry" />
        </mxCell>
        <mxCell id="_VH_vWUhsZV4mzXmtiTr-43" value="+ x: int" style="text;strokeColor=none;fillColor=none;align=left;verticalAlign=top;spacingLeft=4;spacingRight=4;overflow=hidden;rotatable=0;points=[[0,0.5],[1,0.5]];portConstraint=eastwest;whiteSpace=wrap;html=1;" parent="_VH_vWUhsZV4mzXmtiTr-42" vertex="1">
          <mxGeometry y="26" width="140" height="26" as="geometry" />
        </mxCell>
        <mxCell id="_VH_vWUhsZV4mzXmtiTr-44" value="+ y: int" style="text;strokeColor=none;fillColor=none;align=left;verticalAlign=top;spacingLeft=4;spacingRight=4;overflow=hidden;rotatable=0;points=[[0,0.5],[1,0.5]];portConstraint=eastwest;whiteSpace=wrap;html=1;" parent="_VH_vWUhsZV4mzXmtiTr-42" vertex="1">
          <mxGeometry y="52" width="140" height="26" as="geometry" />
        </mxCell>
        <mxCell id="_VH_vWUhsZV4mzXmtiTr-16" value="&lt;p style=&quot;margin:0px;margin-top:4px;text-align:center;&quot;&gt;&lt;i&gt;&amp;lt;&amp;lt;Interface&amp;gt;&amp;gt;&lt;/i&gt;&lt;br&gt;&lt;b&gt;ICanvasDrawable&lt;/b&gt;&lt;br&gt;&lt;/p&gt;&lt;hr size=&quot;1&quot;&gt;&lt;p style=&quot;margin:0px;margin-left:4px;&quot;&gt;&lt;/p&gt;&lt;p style=&quot;margin:0px;margin-left:4px;&quot;&gt;+ Draw(canvas: ICanvas&amp;amp;)&lt;br&gt;&lt;/p&gt;" style="verticalAlign=top;align=left;overflow=fill;fontSize=12;fontFamily=Helvetica;html=1;whiteSpace=wrap;" parent="1" vertex="1">
          <mxGeometry x="650" y="290" width="190" height="90" as="geometry" />
        </mxCell>
        <mxCell id="_VH_vWUhsZV4mzXmtiTr-17" value="Use" style="endArrow=open;endSize=12;dashed=1;html=1;rounded=0;exitX=-0.003;exitY=0.362;exitDx=0;exitDy=0;exitPerimeter=0;entryX=1;entryY=0.75;entryDx=0;entryDy=0;" parent="1" source="_VH_vWUhsZV4mzXmtiTr-16" target="_VH_vWUhsZV4mzXmtiTr-5" edge="1">
          <mxGeometry width="160" relative="1" as="geometry">
            <mxPoint x="340" y="260" as="sourcePoint" />
            <mxPoint x="500" y="260" as="targetPoint" />
          </mxGeometry>
        </mxCell>
        <mxCell id="_VH_vWUhsZV4mzXmtiTr-19" value="CTriangle" style="swimlane;fontStyle=0;childLayout=stackLayout;horizontal=1;startSize=26;fillColor=none;horizontalStack=0;resizeParent=1;resizeParentMax=0;resizeLast=0;collapsible=1;marginBottom=0;whiteSpace=wrap;html=1;" parent="1" vertex="1">
          <mxGeometry x="620" y="450" width="180" height="138" as="geometry" />
        </mxCell>
        <mxCell id="_VH_vWUhsZV4mzXmtiTr-20" value="+ Draw(canvas: ICanvas&amp;amp;)" style="text;strokeColor=none;fillColor=none;align=left;verticalAlign=top;spacingLeft=4;spacingRight=4;overflow=hidden;rotatable=0;points=[[0,0.5],[1,0.5]];portConstraint=eastwest;whiteSpace=wrap;html=1;" parent="_VH_vWUhsZV4mzXmtiTr-19" vertex="1">
          <mxGeometry y="26" width="180" height="34" as="geometry" />
        </mxCell>
        <mxCell id="_VH_vWUhsZV4mzXmtiTr-21" value="- m_vertex1: Point&lt;br&gt;" style="text;strokeColor=none;fillColor=none;align=left;verticalAlign=top;spacingLeft=4;spacingRight=4;overflow=hidden;rotatable=0;points=[[0,0.5],[1,0.5]];portConstraint=eastwest;whiteSpace=wrap;html=1;" parent="_VH_vWUhsZV4mzXmtiTr-19" vertex="1">
          <mxGeometry y="60" width="180" height="26" as="geometry" />
        </mxCell>
        <mxCell id="_VH_vWUhsZV4mzXmtiTr-22" value="- m_vertex2: Point" style="text;strokeColor=none;fillColor=none;align=left;verticalAlign=top;spacingLeft=4;spacingRight=4;overflow=hidden;rotatable=0;points=[[0,0.5],[1,0.5]];portConstraint=eastwest;whiteSpace=wrap;html=1;" parent="_VH_vWUhsZV4mzXmtiTr-19" vertex="1">
          <mxGeometry y="86" width="180" height="26" as="geometry" />
        </mxCell>
        <mxCell id="_VH_vWUhsZV4mzXmtiTr-25" value="- m_vertex3: Point" style="text;strokeColor=none;fillColor=none;align=left;verticalAlign=top;spacingLeft=4;spacingRight=4;overflow=hidden;rotatable=0;points=[[0,0.5],[1,0.5]];portConstraint=eastwest;whiteSpace=wrap;html=1;" parent="_VH_vWUhsZV4mzXmtiTr-19" vertex="1">
          <mxGeometry y="112" width="180" height="26" as="geometry" />
        </mxCell>
        <mxCell id="_VH_vWUhsZV4mzXmtiTr-27" value="CRectangle" style="swimlane;fontStyle=0;childLayout=stackLayout;horizontal=1;startSize=26;fillColor=none;horizontalStack=0;resizeParent=1;resizeParentMax=0;resizeLast=0;collapsible=1;marginBottom=0;whiteSpace=wrap;html=1;" parent="1" vertex="1">
          <mxGeometry x="827" y="430" width="180" height="138" as="geometry" />
        </mxCell>
        <mxCell id="_VH_vWUhsZV4mzXmtiTr-28" value="+ Draw(canvas: ICanvas&amp;amp;)" style="text;strokeColor=none;fillColor=none;align=left;verticalAlign=top;spacingLeft=4;spacingRight=4;overflow=hidden;rotatable=0;points=[[0,0.5],[1,0.5]];portConstraint=eastwest;whiteSpace=wrap;html=1;" parent="_VH_vWUhsZV4mzXmtiTr-27" vertex="1">
          <mxGeometry y="26" width="180" height="34" as="geometry" />
        </mxCell>
        <mxCell id="_VH_vWUhsZV4mzXmtiTr-29" value="- m_leftTop: Point" style="text;strokeColor=none;fillColor=none;align=left;verticalAlign=top;spacingLeft=4;spacingRight=4;overflow=hidden;rotatable=0;points=[[0,0.5],[1,0.5]];portConstraint=eastwest;whiteSpace=wrap;html=1;" parent="_VH_vWUhsZV4mzXmtiTr-27" vertex="1">
          <mxGeometry y="60" width="180" height="26" as="geometry" />
        </mxCell>
        <mxCell id="_VH_vWUhsZV4mzXmtiTr-30" value="- m_weight: size_t" style="text;strokeColor=none;fillColor=none;align=left;verticalAlign=top;spacingLeft=4;spacingRight=4;overflow=hidden;rotatable=0;points=[[0,0.5],[1,0.5]];portConstraint=eastwest;whiteSpace=wrap;html=1;" parent="_VH_vWUhsZV4mzXmtiTr-27" vertex="1">
          <mxGeometry y="86" width="180" height="26" as="geometry" />
        </mxCell>
        <mxCell id="_VH_vWUhsZV4mzXmtiTr-31" value="- m_height: size_t" style="text;strokeColor=none;fillColor=none;align=left;verticalAlign=top;spacingLeft=4;spacingRight=4;overflow=hidden;rotatable=0;points=[[0,0.5],[1,0.5]];portConstraint=eastwest;whiteSpace=wrap;html=1;" parent="_VH_vWUhsZV4mzXmtiTr-27" vertex="1">
          <mxGeometry y="112" width="180" height="26" as="geometry" />
        </mxCell>
        <mxCell id="_VH_vWUhsZV4mzXmtiTr-23" value="" style="endArrow=block;dashed=1;endFill=0;endSize=12;html=1;rounded=0;exitX=0.75;exitY=0;exitDx=0;exitDy=0;entryX=0.539;entryY=1.029;entryDx=0;entryDy=0;entryPerimeter=0;" parent="1" source="_VH_vWUhsZV4mzXmtiTr-19" target="_VH_vWUhsZV4mzXmtiTr-16" edge="1">
          <mxGeometry width="160" relative="1" as="geometry">
            <mxPoint x="510" y="310" as="sourcePoint" />
            <mxPoint x="670" y="310" as="targetPoint" />
          </mxGeometry>
        </mxCell>
        <mxCell id="_VH_vWUhsZV4mzXmtiTr-26" value="" style="endArrow=diamondThin;endFill=0;endSize=24;html=1;rounded=0;entryX=0.346;entryY=-0.031;entryDx=0;entryDy=0;exitX=0.59;exitY=1.037;exitDx=0;exitDy=0;exitPerimeter=0;edgeStyle=orthogonalEdgeStyle;entryPerimeter=0;" parent="1" target="_VH_vWUhsZV4mzXmtiTr-19" edge="1">
          <mxGeometry width="160" relative="1" as="geometry">
            <mxPoint x="677.5999999999999" y="238.962" as="sourcePoint" />
            <mxPoint x="617.3400000000001" y="512.0020000000002" as="targetPoint" />
            <Array as="points">
              <mxPoint x="678" y="270" />
              <mxPoint x="590" y="270" />
              <mxPoint x="590" y="400" />
              <mxPoint x="682" y="400" />
            </Array>
          </mxGeometry>
        </mxCell>
        <mxCell id="_VH_vWUhsZV4mzXmtiTr-32" value="" style="endArrow=block;dashed=1;endFill=0;endSize=12;html=1;rounded=0;exitX=0.006;exitY=0.097;exitDx=0;exitDy=0;exitPerimeter=0;entryX=0.924;entryY=0.978;entryDx=0;entryDy=0;entryPerimeter=0;" parent="1" source="_VH_vWUhsZV4mzXmtiTr-27" target="_VH_vWUhsZV4mzXmtiTr-16" edge="1">
          <mxGeometry width="160" relative="1" as="geometry">
            <mxPoint x="560" y="460" as="sourcePoint" />
            <mxPoint x="720" y="460" as="targetPoint" />
          </mxGeometry>
        </mxCell>
        <mxCell id="_VH_vWUhsZV4mzXmtiTr-33" value="" style="endArrow=diamondThin;endFill=0;endSize=24;html=1;rounded=0;entryX=0.387;entryY=0.014;entryDx=0;entryDy=0;entryPerimeter=0;edgeStyle=orthogonalEdgeStyle;" parent="1" source="_VH_vWUhsZV4mzXmtiTr-14" target="_VH_vWUhsZV4mzXmtiTr-27" edge="1">
          <mxGeometry width="160" relative="1" as="geometry">
            <mxPoint x="560" y="460" as="sourcePoint" />
            <mxPoint x="720" y="460" as="targetPoint" />
          </mxGeometry>
        </mxCell>
        <mxCell id="_VH_vWUhsZV4mzXmtiTr-34" value="CCanvasPainter" style="swimlane;fontStyle=0;childLayout=stackLayout;horizontal=1;startSize=26;fillColor=none;horizontalStack=0;resizeParent=1;resizeParentMax=0;resizeLast=0;collapsible=1;marginBottom=0;whiteSpace=wrap;html=1;" parent="1" vertex="1">
          <mxGeometry x="390" y="440" width="220" height="78" as="geometry" />
        </mxCell>
        <mxCell id="_VH_vWUhsZV4mzXmtiTr-35" value="+ Draw(drawable: ICanvasDrawable&amp;amp;)" style="text;strokeColor=none;fillColor=none;align=left;verticalAlign=top;spacingLeft=4;spacingRight=4;overflow=hidden;rotatable=0;points=[[0,0.5],[1,0.5]];portConstraint=eastwest;whiteSpace=wrap;html=1;" parent="_VH_vWUhsZV4mzXmtiTr-34" vertex="1">
          <mxGeometry y="26" width="220" height="26" as="geometry" />
        </mxCell>
        <mxCell id="_VH_vWUhsZV4mzXmtiTr-36" value="-&amp;nbsp;m_canvas: ICanvas&amp;amp;" style="text;strokeColor=none;fillColor=none;align=left;verticalAlign=top;spacingLeft=4;spacingRight=4;overflow=hidden;rotatable=0;points=[[0,0.5],[1,0.5]];portConstraint=eastwest;whiteSpace=wrap;html=1;" parent="_VH_vWUhsZV4mzXmtiTr-34" vertex="1">
          <mxGeometry y="52" width="220" height="26" as="geometry" />
        </mxCell>
        <mxCell id="_VH_vWUhsZV4mzXmtiTr-38" value="" style="endArrow=diamondThin;endFill=0;endSize=24;html=1;rounded=0;entryX=0.5;entryY=0;entryDx=0;entryDy=0;" parent="1" source="_VH_vWUhsZV4mzXmtiTr-5" target="_VH_vWUhsZV4mzXmtiTr-34" edge="1">
          <mxGeometry width="160" relative="1" as="geometry">
            <mxPoint x="360" y="390" as="sourcePoint" />
            <mxPoint x="520" y="390" as="targetPoint" />
          </mxGeometry>
        </mxCell>
        <mxCell id="_VH_vWUhsZV4mzXmtiTr-40" value="Use" style="endArrow=open;endSize=12;dashed=1;html=1;rounded=0;exitX=0.646;exitY=0.024;exitDx=0;exitDy=0;exitPerimeter=0;entryX=0;entryY=0.75;entryDx=0;entryDy=0;" parent="1" source="_VH_vWUhsZV4mzXmtiTr-34" target="_VH_vWUhsZV4mzXmtiTr-16" edge="1">
          <mxGeometry width="160" relative="1" as="geometry">
            <mxPoint x="360" y="390" as="sourcePoint" />
            <mxPoint x="520" y="390" as="targetPoint" />
          </mxGeometry>
        </mxCell>
        <mxCell id="_VH_vWUhsZV4mzXmtiTr-45" value="CModernGraphicsRenderer" style="swimlane;fontStyle=0;childLayout=stackLayout;horizontal=1;startSize=26;fillColor=none;horizontalStack=0;resizeParent=1;resizeParentMax=0;resizeLast=0;collapsible=1;marginBottom=0;whiteSpace=wrap;html=1;" parent="1" vertex="1">
          <mxGeometry x="-130" y="712" width="280" height="156" as="geometry" />
        </mxCell>
        <mxCell id="_VH_vWUhsZV4mzXmtiTr-46" value="+ BeginDraw()" style="text;strokeColor=none;fillColor=none;align=left;verticalAlign=top;spacingLeft=4;spacingRight=4;overflow=hidden;rotatable=0;points=[[0,0.5],[1,0.5]];portConstraint=eastwest;whiteSpace=wrap;html=1;" parent="_VH_vWUhsZV4mzXmtiTr-45" vertex="1">
          <mxGeometry y="26" width="280" height="26" as="geometry" />
        </mxCell>
        <mxCell id="_VH_vWUhsZV4mzXmtiTr-47" value="+ DrawLine(start : const CPoint, end: const CPoint" style="text;strokeColor=none;fillColor=none;align=left;verticalAlign=top;spacingLeft=4;spacingRight=4;overflow=hidden;rotatable=0;points=[[0,0.5],[1,0.5]];portConstraint=eastwest;whiteSpace=wrap;html=1;" parent="_VH_vWUhsZV4mzXmtiTr-45" vertex="1">
          <mxGeometry y="52" width="280" height="26" as="geometry" />
        </mxCell>
        <mxCell id="_VH_vWUhsZV4mzXmtiTr-48" value="+&amp;nbsp;EndDraw()" style="text;strokeColor=none;fillColor=none;align=left;verticalAlign=top;spacingLeft=4;spacingRight=4;overflow=hidden;rotatable=0;points=[[0,0.5],[1,0.5]];portConstraint=eastwest;whiteSpace=wrap;html=1;" parent="_VH_vWUhsZV4mzXmtiTr-45" vertex="1">
          <mxGeometry y="78" width="280" height="26" as="geometry" />
        </mxCell>
        <mxCell id="_VH_vWUhsZV4mzXmtiTr-49" value="- m_out: ostream&amp;amp;" style="text;strokeColor=none;fillColor=none;align=left;verticalAlign=top;spacingLeft=4;spacingRight=4;overflow=hidden;rotatable=0;points=[[0,0.5],[1,0.5]];portConstraint=eastwest;whiteSpace=wrap;html=1;" parent="_VH_vWUhsZV4mzXmtiTr-45" vertex="1">
          <mxGeometry y="104" width="280" height="26" as="geometry" />
        </mxCell>
        <mxCell id="_VH_vWUhsZV4mzXmtiTr-50" value="- m_drawinf: bool" style="text;strokeColor=none;fillColor=none;align=left;verticalAlign=top;spacingLeft=4;spacingRight=4;overflow=hidden;rotatable=0;points=[[0,0.5],[1,0.5]];portConstraint=eastwest;whiteSpace=wrap;html=1;" parent="_VH_vWUhsZV4mzXmtiTr-45" vertex="1">
          <mxGeometry y="130" width="280" height="26" as="geometry" />
        </mxCell>
        <mxCell id="_VH_vWUhsZV4mzXmtiTr-51" value="ModernGraphicsLibAdapter" style="swimlane;fontStyle=0;childLayout=stackLayout;horizontal=1;startSize=26;fillColor=none;horizontalStack=0;resizeParent=1;resizeParentMax=0;resizeLast=0;collapsible=1;marginBottom=0;whiteSpace=wrap;html=1;" parent="1" vertex="1">
          <mxGeometry x="350" y="690" width="250" height="130" as="geometry" />
        </mxCell>
        <mxCell id="_VH_vWUhsZV4mzXmtiTr-52" value="+ MoveTo(x: int, y: int)" style="text;strokeColor=none;fillColor=none;align=left;verticalAlign=top;spacingLeft=4;spacingRight=4;overflow=hidden;rotatable=0;points=[[0,0.5],[1,0.5]];portConstraint=eastwest;whiteSpace=wrap;html=1;" parent="_VH_vWUhsZV4mzXmtiTr-51" vertex="1">
          <mxGeometry y="26" width="250" height="26" as="geometry" />
        </mxCell>
        <mxCell id="_VH_vWUhsZV4mzXmtiTr-53" value="+ LineTo(x: int, y: int)" style="text;strokeColor=none;fillColor=none;align=left;verticalAlign=top;spacingLeft=4;spacingRight=4;overflow=hidden;rotatable=0;points=[[0,0.5],[1,0.5]];portConstraint=eastwest;whiteSpace=wrap;html=1;" parent="_VH_vWUhsZV4mzXmtiTr-51" vertex="1">
          <mxGeometry y="52" width="250" height="26" as="geometry" />
        </mxCell>
        <mxCell id="_VH_vWUhsZV4mzXmtiTr-54" value="- m_renderer:&amp;nbsp;CModernGraphicsRenderer&amp;amp;" style="text;strokeColor=none;fillColor=none;align=left;verticalAlign=top;spacingLeft=4;spacingRight=4;overflow=hidden;rotatable=0;points=[[0,0.5],[1,0.5]];portConstraint=eastwest;whiteSpace=wrap;html=1;" parent="_VH_vWUhsZV4mzXmtiTr-51" vertex="1">
          <mxGeometry y="78" width="250" height="26" as="geometry" />
        </mxCell>
        <mxCell id="_VH_vWUhsZV4mzXmtiTr-57" value="- m_drawingPos:&amp;nbsp;CPoint&amp;amp;" style="text;strokeColor=none;fillColor=none;align=left;verticalAlign=top;spacingLeft=4;spacingRight=4;overflow=hidden;rotatable=0;points=[[0,0.5],[1,0.5]];portConstraint=eastwest;whiteSpace=wrap;html=1;" parent="_VH_vWUhsZV4mzXmtiTr-51" vertex="1">
          <mxGeometry y="104" width="250" height="26" as="geometry" />
        </mxCell>
        <mxCell id="_VH_vWUhsZV4mzXmtiTr-55" value="Use" style="endArrow=open;endSize=12;dashed=1;html=1;rounded=0;entryX=1;entryY=0.5;entryDx=0;entryDy=0;exitX=0.75;exitY=0;exitDx=0;exitDy=0;" parent="1" source="_VH_vWUhsZV4mzXmtiTr-45" target="_VH_vWUhsZV4mzXmtiTr-44" edge="1">
          <mxGeometry width="160" relative="1" as="geometry">
            <mxPoint x="190" y="720" as="sourcePoint" />
            <mxPoint x="350" y="720" as="targetPoint" />
          </mxGeometry>
        </mxCell>
        <mxCell id="_VH_vWUhsZV4mzXmtiTr-56" value="" style="endArrow=block;dashed=1;endFill=0;endSize=12;html=1;rounded=0;entryX=0.136;entryY=0.994;entryDx=0;entryDy=0;entryPerimeter=0;exitX=0.131;exitY=-0.033;exitDx=0;exitDy=0;edgeStyle=orthogonalEdgeStyle;exitPerimeter=0;" parent="1" source="_VH_vWUhsZV4mzXmtiTr-51" target="_VH_vWUhsZV4mzXmtiTr-5" edge="1">
          <mxGeometry width="160" relative="1" as="geometry">
            <mxPoint x="330" y="720" as="sourcePoint" />
            <mxPoint x="270" y="460" as="targetPoint" />
            <Array as="points">
              <mxPoint x="383" y="660" />
              <mxPoint x="350" y="660" />
              <mxPoint x="350" y="520" />
              <mxPoint x="46" y="520" />
            </Array>
          </mxGeometry>
        </mxCell>
        <mxCell id="_VH_vWUhsZV4mzXmtiTr-58" value="" style="endArrow=diamondThin;endFill=1;endSize=24;html=1;rounded=0;entryX=0;entryY=0.5;entryDx=0;entryDy=0;exitX=1;exitY=0.5;exitDx=0;exitDy=0;" parent="1" source="_VH_vWUhsZV4mzXmtiTr-43" target="_VH_vWUhsZV4mzXmtiTr-54" edge="1">
          <mxGeometry width="160" relative="1" as="geometry">
            <mxPoint x="290" y="740" as="sourcePoint" />
            <mxPoint x="450" y="740" as="targetPoint" />
          </mxGeometry>
        </mxCell>
        <mxCell id="_VH_vWUhsZV4mzXmtiTr-59" value="" style="endArrow=diamondThin;endFill=0;endSize=24;html=1;rounded=0;entryX=-0.008;entryY=0.172;entryDx=0;entryDy=0;exitX=0.974;exitY=0.064;exitDx=0;exitDy=0;exitPerimeter=0;entryPerimeter=0;" parent="1" source="_VH_vWUhsZV4mzXmtiTr-47" target="_VH_vWUhsZV4mzXmtiTr-51" edge="1">
          <mxGeometry width="160" relative="1" as="geometry">
            <mxPoint x="290" y="740" as="sourcePoint" />
            <mxPoint x="450" y="740" as="targetPoint" />
          </mxGeometry>
        </mxCell>
        <mxCell id="_VH_vWUhsZV4mzXmtiTr-61" value="PaintPicture(painter: CCanvasPainter&amp;amp; )" style="html=1;whiteSpace=wrap;" parent="1" vertex="1">
          <mxGeometry x="747" y="750" width="340" height="50" as="geometry" />
        </mxCell>
        <mxCell id="_VH_vWUhsZV4mzXmtiTr-63" value="PaintPictureOnModernGraphicsRenderer()" style="html=1;whiteSpace=wrap;" parent="1" vertex="1">
          <mxGeometry x="750" y="830" width="330" height="50" as="geometry" />
        </mxCell>
        <mxCell id="_VH_vWUhsZV4mzXmtiTr-64" value="PaintPictureOnCanvas()" style="html=1;whiteSpace=wrap;" parent="1" vertex="1">
          <mxGeometry x="750" y="900" width="330" height="50" as="geometry" />
        </mxCell>
        <mxCell id="_VH_vWUhsZV4mzXmtiTr-65" value="Use" style="endArrow=open;endSize=12;dashed=1;html=1;rounded=0;entryX=0.649;entryY=1.158;entryDx=0;entryDy=0;entryPerimeter=0;" parent="1" source="_VH_vWUhsZV4mzXmtiTr-61" target="_VH_vWUhsZV4mzXmtiTr-36" edge="1">
          <mxGeometry width="160" relative="1" as="geometry">
            <mxPoint x="640" y="670" as="sourcePoint" />
            <mxPoint x="800" y="670" as="targetPoint" />
          </mxGeometry>
        </mxCell>
      </root>
    </mxGraphModel>
  </diagram>
  <diagram id="iKa8YdcMZhLHxcT2XRcA" name="Страница — 2">
    <mxGraphModel dx="2163" dy="767" grid="1" gridSize="10" guides="1" tooltips="1" connect="1" arrows="1" fold="1" page="1" pageScale="1" pageWidth="827" pageHeight="1169" math="0" shadow="0">
      <root>
        <mxCell id="0" />
        <mxCell id="1" parent="0" />
        <mxCell id="6Q3wrWz7BgHaqSBON38d-1" value="graphics_lib" style="shape=folder;fontStyle=1;spacingTop=10;tabWidth=40;tabHeight=14;tabPosition=left;html=1;whiteSpace=wrap;verticalAlign=top;" parent="1" vertex="1">
          <mxGeometry x="-20" y="130" width="270" height="350" as="geometry" />
        </mxCell>
        <mxCell id="6Q3wrWz7BgHaqSBON38d-2" value="shape_drawing_lib" style="shape=folder;fontStyle=1;spacingTop=10;tabWidth=40;tabHeight=14;tabPosition=left;html=1;whiteSpace=wrap;verticalAlign=top;" parent="1" vertex="1">
          <mxGeometry x="385" y="110" width="650" height="520" as="geometry" />
        </mxCell>
        <mxCell id="6Q3wrWz7BgHaqSBON38d-3" value="modern_graphics_lib" style="shape=folder;fontStyle=1;spacingTop=10;tabWidth=40;tabHeight=14;tabPosition=left;html=1;whiteSpace=wrap;verticalAlign=top;" parent="1" vertex="1">
          <mxGeometry x="-150" y="530" width="340" height="370" as="geometry" />
        </mxCell>
        <mxCell id="6Q3wrWz7BgHaqSBON38d-4" value="app" style="shape=folder;fontStyle=1;spacingTop=10;tabWidth=40;tabHeight=14;tabPosition=left;html=1;whiteSpace=wrap;verticalAlign=top;" parent="1" vertex="1">
          <mxGeometry x="747" y="678" width="340" height="370" as="geometry" />
        </mxCell>
        <mxCell id="6Q3wrWz7BgHaqSBON38d-5" value="&lt;p style=&quot;margin:0px;margin-top:4px;text-align:center;&quot;&gt;&lt;i&gt;&amp;lt;&amp;lt;Interface&amp;gt;&amp;gt;&lt;/i&gt;&lt;br&gt;&lt;b&gt;ICanvas&lt;/b&gt;&lt;br&gt;&lt;/p&gt;&lt;hr size=&quot;1&quot;&gt;&lt;p style=&quot;margin:0px;margin-left:4px;&quot;&gt;&lt;span style=&quot;background-color: initial;&quot;&gt;+ MoveTo(x: int, y: int)&lt;/span&gt;&lt;br&gt;&lt;/p&gt;&lt;p style=&quot;margin:0px;margin-left:4px;&quot;&gt;+ LineTo(x: int, y: int)&lt;/p&gt;" style="verticalAlign=top;align=left;overflow=fill;fontSize=12;fontFamily=Helvetica;html=1;whiteSpace=wrap;" parent="1" vertex="1">
          <mxGeometry x="20" y="190" width="190" height="90" as="geometry" />
        </mxCell>
        <mxCell id="6Q3wrWz7BgHaqSBON38d-6" value="CCanvas" style="swimlane;fontStyle=0;childLayout=stackLayout;horizontal=1;startSize=26;fillColor=none;horizontalStack=0;resizeParent=1;resizeParentMax=0;resizeLast=0;collapsible=1;marginBottom=0;whiteSpace=wrap;html=1;" parent="1" vertex="1">
          <mxGeometry x="90" y="330" width="140" height="78" as="geometry" />
        </mxCell>
        <mxCell id="6Q3wrWz7BgHaqSBON38d-7" value="+ MoveTo(x: int, y: int)" style="text;strokeColor=none;fillColor=none;align=left;verticalAlign=top;spacingLeft=4;spacingRight=4;overflow=hidden;rotatable=0;points=[[0,0.5],[1,0.5]];portConstraint=eastwest;whiteSpace=wrap;html=1;" parent="6Q3wrWz7BgHaqSBON38d-6" vertex="1">
          <mxGeometry y="26" width="140" height="26" as="geometry" />
        </mxCell>
        <mxCell id="6Q3wrWz7BgHaqSBON38d-8" value="+ LineTo(x: int, y: int)" style="text;strokeColor=none;fillColor=none;align=left;verticalAlign=top;spacingLeft=4;spacingRight=4;overflow=hidden;rotatable=0;points=[[0,0.5],[1,0.5]];portConstraint=eastwest;whiteSpace=wrap;html=1;" parent="6Q3wrWz7BgHaqSBON38d-6" vertex="1">
          <mxGeometry y="52" width="140" height="26" as="geometry" />
        </mxCell>
        <mxCell id="6Q3wrWz7BgHaqSBON38d-9" value="" style="endArrow=block;dashed=1;endFill=0;endSize=12;html=1;rounded=0;exitX=0.5;exitY=0;exitDx=0;exitDy=0;entryX=0.5;entryY=1;entryDx=0;entryDy=0;" parent="1" source="6Q3wrWz7BgHaqSBON38d-6" target="6Q3wrWz7BgHaqSBON38d-5" edge="1">
          <mxGeometry width="160" relative="1" as="geometry">
            <mxPoint x="330" y="260" as="sourcePoint" />
            <mxPoint x="490" y="260" as="targetPoint" />
          </mxGeometry>
        </mxCell>
        <mxCell id="6Q3wrWz7BgHaqSBON38d-10" value="Point" style="swimlane;fontStyle=0;childLayout=stackLayout;horizontal=1;startSize=26;fillColor=none;horizontalStack=0;resizeParent=1;resizeParentMax=0;resizeLast=0;collapsible=1;marginBottom=0;whiteSpace=wrap;html=1;" parent="1" vertex="1">
          <mxGeometry x="600" y="160" width="140" height="78" as="geometry" />
        </mxCell>
        <mxCell id="6Q3wrWz7BgHaqSBON38d-11" value="+ x: int" style="text;strokeColor=none;fillColor=none;align=left;verticalAlign=top;spacingLeft=4;spacingRight=4;overflow=hidden;rotatable=0;points=[[0,0.5],[1,0.5]];portConstraint=eastwest;whiteSpace=wrap;html=1;" parent="6Q3wrWz7BgHaqSBON38d-10" vertex="1">
          <mxGeometry y="26" width="140" height="26" as="geometry" />
        </mxCell>
        <mxCell id="6Q3wrWz7BgHaqSBON38d-12" value="+ y: int" style="text;strokeColor=none;fillColor=none;align=left;verticalAlign=top;spacingLeft=4;spacingRight=4;overflow=hidden;rotatable=0;points=[[0,0.5],[1,0.5]];portConstraint=eastwest;whiteSpace=wrap;html=1;" parent="6Q3wrWz7BgHaqSBON38d-10" vertex="1">
          <mxGeometry y="52" width="140" height="26" as="geometry" />
        </mxCell>
        <mxCell id="6Q3wrWz7BgHaqSBON38d-13" value="CPoint" style="swimlane;fontStyle=0;childLayout=stackLayout;horizontal=1;startSize=26;fillColor=none;horizontalStack=0;resizeParent=1;resizeParentMax=0;resizeLast=0;collapsible=1;marginBottom=0;whiteSpace=wrap;html=1;" parent="1" vertex="1">
          <mxGeometry x="-60" y="600" width="140" height="78" as="geometry" />
        </mxCell>
        <mxCell id="6Q3wrWz7BgHaqSBON38d-14" value="+ x: int" style="text;strokeColor=none;fillColor=none;align=left;verticalAlign=top;spacingLeft=4;spacingRight=4;overflow=hidden;rotatable=0;points=[[0,0.5],[1,0.5]];portConstraint=eastwest;whiteSpace=wrap;html=1;" parent="6Q3wrWz7BgHaqSBON38d-13" vertex="1">
          <mxGeometry y="26" width="140" height="26" as="geometry" />
        </mxCell>
        <mxCell id="6Q3wrWz7BgHaqSBON38d-15" value="+ y: int" style="text;strokeColor=none;fillColor=none;align=left;verticalAlign=top;spacingLeft=4;spacingRight=4;overflow=hidden;rotatable=0;points=[[0,0.5],[1,0.5]];portConstraint=eastwest;whiteSpace=wrap;html=1;" parent="6Q3wrWz7BgHaqSBON38d-13" vertex="1">
          <mxGeometry y="52" width="140" height="26" as="geometry" />
        </mxCell>
        <mxCell id="6Q3wrWz7BgHaqSBON38d-16" value="&lt;p style=&quot;margin:0px;margin-top:4px;text-align:center;&quot;&gt;&lt;i&gt;&amp;lt;&amp;lt;Interface&amp;gt;&amp;gt;&lt;/i&gt;&lt;br&gt;&lt;b&gt;ICanvasDrawable&lt;/b&gt;&lt;br&gt;&lt;/p&gt;&lt;hr size=&quot;1&quot;&gt;&lt;p style=&quot;margin:0px;margin-left:4px;&quot;&gt;&lt;/p&gt;&lt;p style=&quot;margin:0px;margin-left:4px;&quot;&gt;+ Draw(canvas: ICanvas&amp;amp;)&lt;br&gt;&lt;/p&gt;" style="verticalAlign=top;align=left;overflow=fill;fontSize=12;fontFamily=Helvetica;html=1;whiteSpace=wrap;" parent="1" vertex="1">
          <mxGeometry x="650" y="290" width="190" height="90" as="geometry" />
        </mxCell>
        <mxCell id="6Q3wrWz7BgHaqSBON38d-17" value="Use" style="endArrow=open;endSize=12;dashed=1;html=1;rounded=0;exitX=-0.003;exitY=0.362;exitDx=0;exitDy=0;exitPerimeter=0;entryX=1;entryY=0.75;entryDx=0;entryDy=0;" parent="1" source="6Q3wrWz7BgHaqSBON38d-16" target="6Q3wrWz7BgHaqSBON38d-5" edge="1">
          <mxGeometry width="160" relative="1" as="geometry">
            <mxPoint x="340" y="260" as="sourcePoint" />
            <mxPoint x="500" y="260" as="targetPoint" />
          </mxGeometry>
        </mxCell>
        <mxCell id="6Q3wrWz7BgHaqSBON38d-18" value="CTriangle" style="swimlane;fontStyle=0;childLayout=stackLayout;horizontal=1;startSize=26;fillColor=none;horizontalStack=0;resizeParent=1;resizeParentMax=0;resizeLast=0;collapsible=1;marginBottom=0;whiteSpace=wrap;html=1;" parent="1" vertex="1">
          <mxGeometry x="620" y="450" width="180" height="138" as="geometry" />
        </mxCell>
        <mxCell id="6Q3wrWz7BgHaqSBON38d-19" value="+ Draw(canvas: ICanvas&amp;amp;)" style="text;strokeColor=none;fillColor=none;align=left;verticalAlign=top;spacingLeft=4;spacingRight=4;overflow=hidden;rotatable=0;points=[[0,0.5],[1,0.5]];portConstraint=eastwest;whiteSpace=wrap;html=1;" parent="6Q3wrWz7BgHaqSBON38d-18" vertex="1">
          <mxGeometry y="26" width="180" height="34" as="geometry" />
        </mxCell>
        <mxCell id="6Q3wrWz7BgHaqSBON38d-20" value="- m_vertex1: Point&lt;br&gt;" style="text;strokeColor=none;fillColor=none;align=left;verticalAlign=top;spacingLeft=4;spacingRight=4;overflow=hidden;rotatable=0;points=[[0,0.5],[1,0.5]];portConstraint=eastwest;whiteSpace=wrap;html=1;" parent="6Q3wrWz7BgHaqSBON38d-18" vertex="1">
          <mxGeometry y="60" width="180" height="26" as="geometry" />
        </mxCell>
        <mxCell id="6Q3wrWz7BgHaqSBON38d-21" value="- m_vertex2: Point" style="text;strokeColor=none;fillColor=none;align=left;verticalAlign=top;spacingLeft=4;spacingRight=4;overflow=hidden;rotatable=0;points=[[0,0.5],[1,0.5]];portConstraint=eastwest;whiteSpace=wrap;html=1;" parent="6Q3wrWz7BgHaqSBON38d-18" vertex="1">
          <mxGeometry y="86" width="180" height="26" as="geometry" />
        </mxCell>
        <mxCell id="6Q3wrWz7BgHaqSBON38d-22" value="- m_vertex3: Point" style="text;strokeColor=none;fillColor=none;align=left;verticalAlign=top;spacingLeft=4;spacingRight=4;overflow=hidden;rotatable=0;points=[[0,0.5],[1,0.5]];portConstraint=eastwest;whiteSpace=wrap;html=1;" parent="6Q3wrWz7BgHaqSBON38d-18" vertex="1">
          <mxGeometry y="112" width="180" height="26" as="geometry" />
        </mxCell>
        <mxCell id="6Q3wrWz7BgHaqSBON38d-23" value="CRectangle" style="swimlane;fontStyle=0;childLayout=stackLayout;horizontal=1;startSize=26;fillColor=none;horizontalStack=0;resizeParent=1;resizeParentMax=0;resizeLast=0;collapsible=1;marginBottom=0;whiteSpace=wrap;html=1;" parent="1" vertex="1">
          <mxGeometry x="827" y="430" width="180" height="138" as="geometry" />
        </mxCell>
        <mxCell id="6Q3wrWz7BgHaqSBON38d-24" value="+ Draw(canvas: ICanvas&amp;amp;)" style="text;strokeColor=none;fillColor=none;align=left;verticalAlign=top;spacingLeft=4;spacingRight=4;overflow=hidden;rotatable=0;points=[[0,0.5],[1,0.5]];portConstraint=eastwest;whiteSpace=wrap;html=1;" parent="6Q3wrWz7BgHaqSBON38d-23" vertex="1">
          <mxGeometry y="26" width="180" height="34" as="geometry" />
        </mxCell>
        <mxCell id="6Q3wrWz7BgHaqSBON38d-25" value="- m_leftTop: Point" style="text;strokeColor=none;fillColor=none;align=left;verticalAlign=top;spacingLeft=4;spacingRight=4;overflow=hidden;rotatable=0;points=[[0,0.5],[1,0.5]];portConstraint=eastwest;whiteSpace=wrap;html=1;" parent="6Q3wrWz7BgHaqSBON38d-23" vertex="1">
          <mxGeometry y="60" width="180" height="26" as="geometry" />
        </mxCell>
        <mxCell id="6Q3wrWz7BgHaqSBON38d-26" value="- m_weight: size_t" style="text;strokeColor=none;fillColor=none;align=left;verticalAlign=top;spacingLeft=4;spacingRight=4;overflow=hidden;rotatable=0;points=[[0,0.5],[1,0.5]];portConstraint=eastwest;whiteSpace=wrap;html=1;" parent="6Q3wrWz7BgHaqSBON38d-23" vertex="1">
          <mxGeometry y="86" width="180" height="26" as="geometry" />
        </mxCell>
        <mxCell id="6Q3wrWz7BgHaqSBON38d-27" value="- m_height: size_t" style="text;strokeColor=none;fillColor=none;align=left;verticalAlign=top;spacingLeft=4;spacingRight=4;overflow=hidden;rotatable=0;points=[[0,0.5],[1,0.5]];portConstraint=eastwest;whiteSpace=wrap;html=1;" parent="6Q3wrWz7BgHaqSBON38d-23" vertex="1">
          <mxGeometry y="112" width="180" height="26" as="geometry" />
        </mxCell>
        <mxCell id="6Q3wrWz7BgHaqSBON38d-28" value="" style="endArrow=block;dashed=1;endFill=0;endSize=12;html=1;rounded=0;exitX=0.75;exitY=0;exitDx=0;exitDy=0;entryX=0.539;entryY=1.029;entryDx=0;entryDy=0;entryPerimeter=0;" parent="1" source="6Q3wrWz7BgHaqSBON38d-18" target="6Q3wrWz7BgHaqSBON38d-16" edge="1">
          <mxGeometry width="160" relative="1" as="geometry">
            <mxPoint x="510" y="310" as="sourcePoint" />
            <mxPoint x="670" y="310" as="targetPoint" />
          </mxGeometry>
        </mxCell>
        <mxCell id="6Q3wrWz7BgHaqSBON38d-29" value="" style="endArrow=diamondThin;endFill=0;endSize=24;html=1;rounded=0;entryX=0.346;entryY=-0.031;entryDx=0;entryDy=0;exitX=0.59;exitY=1.037;exitDx=0;exitDy=0;exitPerimeter=0;edgeStyle=orthogonalEdgeStyle;entryPerimeter=0;" parent="1" target="6Q3wrWz7BgHaqSBON38d-18" edge="1">
          <mxGeometry width="160" relative="1" as="geometry">
            <mxPoint x="677.5999999999999" y="238.962" as="sourcePoint" />
            <mxPoint x="617.3400000000001" y="512.0020000000002" as="targetPoint" />
            <Array as="points">
              <mxPoint x="678" y="270" />
              <mxPoint x="590" y="270" />
              <mxPoint x="590" y="400" />
              <mxPoint x="682" y="400" />
            </Array>
          </mxGeometry>
        </mxCell>
        <mxCell id="6Q3wrWz7BgHaqSBON38d-30" value="" style="endArrow=block;dashed=1;endFill=0;endSize=12;html=1;rounded=0;exitX=0.006;exitY=0.097;exitDx=0;exitDy=0;exitPerimeter=0;entryX=0.924;entryY=0.978;entryDx=0;entryDy=0;entryPerimeter=0;" parent="1" source="6Q3wrWz7BgHaqSBON38d-23" target="6Q3wrWz7BgHaqSBON38d-16" edge="1">
          <mxGeometry width="160" relative="1" as="geometry">
            <mxPoint x="560" y="460" as="sourcePoint" />
            <mxPoint x="720" y="460" as="targetPoint" />
          </mxGeometry>
        </mxCell>
        <mxCell id="6Q3wrWz7BgHaqSBON38d-31" value="" style="endArrow=diamondThin;endFill=0;endSize=24;html=1;rounded=0;entryX=0.387;entryY=0.014;entryDx=0;entryDy=0;entryPerimeter=0;edgeStyle=orthogonalEdgeStyle;" parent="1" source="6Q3wrWz7BgHaqSBON38d-12" target="6Q3wrWz7BgHaqSBON38d-23" edge="1">
          <mxGeometry width="160" relative="1" as="geometry">
            <mxPoint x="560" y="460" as="sourcePoint" />
            <mxPoint x="720" y="460" as="targetPoint" />
          </mxGeometry>
        </mxCell>
        <mxCell id="6Q3wrWz7BgHaqSBON38d-32" value="CCanvasPainter" style="swimlane;fontStyle=0;childLayout=stackLayout;horizontal=1;startSize=26;fillColor=none;horizontalStack=0;resizeParent=1;resizeParentMax=0;resizeLast=0;collapsible=1;marginBottom=0;whiteSpace=wrap;html=1;" parent="1" vertex="1">
          <mxGeometry x="390" y="440" width="220" height="78" as="geometry" />
        </mxCell>
        <mxCell id="6Q3wrWz7BgHaqSBON38d-33" value="+ Draw(drawable: ICanvasDrawable&amp;amp;)" style="text;strokeColor=none;fillColor=none;align=left;verticalAlign=top;spacingLeft=4;spacingRight=4;overflow=hidden;rotatable=0;points=[[0,0.5],[1,0.5]];portConstraint=eastwest;whiteSpace=wrap;html=1;" parent="6Q3wrWz7BgHaqSBON38d-32" vertex="1">
          <mxGeometry y="26" width="220" height="26" as="geometry" />
        </mxCell>
        <mxCell id="6Q3wrWz7BgHaqSBON38d-34" value="-&amp;nbsp;m_canvas: ICanvas&amp;amp;" style="text;strokeColor=none;fillColor=none;align=left;verticalAlign=top;spacingLeft=4;spacingRight=4;overflow=hidden;rotatable=0;points=[[0,0.5],[1,0.5]];portConstraint=eastwest;whiteSpace=wrap;html=1;" parent="6Q3wrWz7BgHaqSBON38d-32" vertex="1">
          <mxGeometry y="52" width="220" height="26" as="geometry" />
        </mxCell>
        <mxCell id="6Q3wrWz7BgHaqSBON38d-35" value="" style="endArrow=diamondThin;endFill=0;endSize=24;html=1;rounded=0;entryX=0.5;entryY=0;entryDx=0;entryDy=0;" parent="1" source="6Q3wrWz7BgHaqSBON38d-5" target="6Q3wrWz7BgHaqSBON38d-32" edge="1">
          <mxGeometry width="160" relative="1" as="geometry">
            <mxPoint x="360" y="390" as="sourcePoint" />
            <mxPoint x="520" y="390" as="targetPoint" />
          </mxGeometry>
        </mxCell>
        <mxCell id="6Q3wrWz7BgHaqSBON38d-36" value="Use" style="endArrow=open;endSize=12;dashed=1;html=1;rounded=0;exitX=0.646;exitY=0.024;exitDx=0;exitDy=0;exitPerimeter=0;entryX=0;entryY=0.75;entryDx=0;entryDy=0;" parent="1" source="6Q3wrWz7BgHaqSBON38d-32" target="6Q3wrWz7BgHaqSBON38d-16" edge="1">
          <mxGeometry width="160" relative="1" as="geometry">
            <mxPoint x="360" y="390" as="sourcePoint" />
            <mxPoint x="520" y="390" as="targetPoint" />
          </mxGeometry>
        </mxCell>
        <mxCell id="6Q3wrWz7BgHaqSBON38d-37" value="CModernGraphicsRenderer" style="swimlane;fontStyle=0;childLayout=stackLayout;horizontal=1;startSize=26;fillColor=none;horizontalStack=0;resizeParent=1;resizeParentMax=0;resizeLast=0;collapsible=1;marginBottom=0;whiteSpace=wrap;html=1;" parent="1" vertex="1">
          <mxGeometry x="-130" y="712" width="280" height="156" as="geometry" />
        </mxCell>
        <mxCell id="6Q3wrWz7BgHaqSBON38d-38" value="+ BeginDraw()" style="text;strokeColor=none;fillColor=none;align=left;verticalAlign=top;spacingLeft=4;spacingRight=4;overflow=hidden;rotatable=0;points=[[0,0.5],[1,0.5]];portConstraint=eastwest;whiteSpace=wrap;html=1;" parent="6Q3wrWz7BgHaqSBON38d-37" vertex="1">
          <mxGeometry y="26" width="280" height="26" as="geometry" />
        </mxCell>
        <mxCell id="6Q3wrWz7BgHaqSBON38d-39" value="+ DrawLine(start : const CPoint, end: const CPoint" style="text;strokeColor=none;fillColor=none;align=left;verticalAlign=top;spacingLeft=4;spacingRight=4;overflow=hidden;rotatable=0;points=[[0,0.5],[1,0.5]];portConstraint=eastwest;whiteSpace=wrap;html=1;" parent="6Q3wrWz7BgHaqSBON38d-37" vertex="1">
          <mxGeometry y="52" width="280" height="26" as="geometry" />
        </mxCell>
        <mxCell id="6Q3wrWz7BgHaqSBON38d-40" value="+&amp;nbsp;EndDraw()" style="text;strokeColor=none;fillColor=none;align=left;verticalAlign=top;spacingLeft=4;spacingRight=4;overflow=hidden;rotatable=0;points=[[0,0.5],[1,0.5]];portConstraint=eastwest;whiteSpace=wrap;html=1;" parent="6Q3wrWz7BgHaqSBON38d-37" vertex="1">
          <mxGeometry y="78" width="280" height="26" as="geometry" />
        </mxCell>
        <mxCell id="6Q3wrWz7BgHaqSBON38d-41" value="- m_out: ostream&amp;amp;" style="text;strokeColor=none;fillColor=none;align=left;verticalAlign=top;spacingLeft=4;spacingRight=4;overflow=hidden;rotatable=0;points=[[0,0.5],[1,0.5]];portConstraint=eastwest;whiteSpace=wrap;html=1;" parent="6Q3wrWz7BgHaqSBON38d-37" vertex="1">
          <mxGeometry y="104" width="280" height="26" as="geometry" />
        </mxCell>
        <mxCell id="6Q3wrWz7BgHaqSBON38d-42" value="- m_drawinf: bool" style="text;strokeColor=none;fillColor=none;align=left;verticalAlign=top;spacingLeft=4;spacingRight=4;overflow=hidden;rotatable=0;points=[[0,0.5],[1,0.5]];portConstraint=eastwest;whiteSpace=wrap;html=1;" parent="6Q3wrWz7BgHaqSBON38d-37" vertex="1">
          <mxGeometry y="130" width="280" height="26" as="geometry" />
        </mxCell>
        <mxCell id="6Q3wrWz7BgHaqSBON38d-43" value="ModernGraphicsLibAdapter" style="swimlane;fontStyle=0;childLayout=stackLayout;horizontal=1;startSize=26;fillColor=none;horizontalStack=0;resizeParent=1;resizeParentMax=0;resizeLast=0;collapsible=1;marginBottom=0;whiteSpace=wrap;html=1;" parent="1" vertex="1">
          <mxGeometry x="350" y="690" width="250" height="104" as="geometry" />
        </mxCell>
        <mxCell id="6Q3wrWz7BgHaqSBON38d-44" value="+ MoveTo(x: int, y: int)" style="text;strokeColor=none;fillColor=none;align=left;verticalAlign=top;spacingLeft=4;spacingRight=4;overflow=hidden;rotatable=0;points=[[0,0.5],[1,0.5]];portConstraint=eastwest;whiteSpace=wrap;html=1;" parent="6Q3wrWz7BgHaqSBON38d-43" vertex="1">
          <mxGeometry y="26" width="250" height="26" as="geometry" />
        </mxCell>
        <mxCell id="6Q3wrWz7BgHaqSBON38d-45" value="+ LineTo(x: int, y: int)" style="text;strokeColor=none;fillColor=none;align=left;verticalAlign=top;spacingLeft=4;spacingRight=4;overflow=hidden;rotatable=0;points=[[0,0.5],[1,0.5]];portConstraint=eastwest;whiteSpace=wrap;html=1;" parent="6Q3wrWz7BgHaqSBON38d-43" vertex="1">
          <mxGeometry y="52" width="250" height="26" as="geometry" />
        </mxCell>
        <mxCell id="6Q3wrWz7BgHaqSBON38d-47" value="- m_drawingPos:&amp;nbsp;CPoint&amp;amp;" style="text;strokeColor=none;fillColor=none;align=left;verticalAlign=top;spacingLeft=4;spacingRight=4;overflow=hidden;rotatable=0;points=[[0,0.5],[1,0.5]];portConstraint=eastwest;whiteSpace=wrap;html=1;" parent="6Q3wrWz7BgHaqSBON38d-43" vertex="1">
          <mxGeometry y="78" width="250" height="26" as="geometry" />
        </mxCell>
        <mxCell id="6Q3wrWz7BgHaqSBON38d-48" value="Use" style="endArrow=open;endSize=12;dashed=1;html=1;rounded=0;entryX=1;entryY=0.5;entryDx=0;entryDy=0;exitX=0.75;exitY=0;exitDx=0;exitDy=0;" parent="1" source="6Q3wrWz7BgHaqSBON38d-37" target="6Q3wrWz7BgHaqSBON38d-15" edge="1">
          <mxGeometry width="160" relative="1" as="geometry">
            <mxPoint x="190" y="720" as="sourcePoint" />
            <mxPoint x="350" y="720" as="targetPoint" />
          </mxGeometry>
        </mxCell>
        <mxCell id="6Q3wrWz7BgHaqSBON38d-49" value="" style="endArrow=block;dashed=1;endFill=0;endSize=12;html=1;rounded=0;entryX=0.136;entryY=0.994;entryDx=0;entryDy=0;entryPerimeter=0;exitX=0.131;exitY=-0.033;exitDx=0;exitDy=0;edgeStyle=orthogonalEdgeStyle;exitPerimeter=0;" parent="1" source="6Q3wrWz7BgHaqSBON38d-43" target="6Q3wrWz7BgHaqSBON38d-5" edge="1">
          <mxGeometry width="160" relative="1" as="geometry">
            <mxPoint x="330" y="720" as="sourcePoint" />
            <mxPoint x="270" y="460" as="targetPoint" />
            <Array as="points">
              <mxPoint x="383" y="660" />
              <mxPoint x="350" y="660" />
              <mxPoint x="350" y="520" />
              <mxPoint x="46" y="520" />
            </Array>
          </mxGeometry>
        </mxCell>
        <mxCell id="6Q3wrWz7BgHaqSBON38d-50" value="" style="endArrow=diamondThin;endFill=1;endSize=24;html=1;rounded=0;entryX=0;entryY=0.5;entryDx=0;entryDy=0;exitX=1;exitY=0.5;exitDx=0;exitDy=0;" parent="1" source="6Q3wrWz7BgHaqSBON38d-14" edge="1">
          <mxGeometry width="160" relative="1" as="geometry">
            <mxPoint x="290" y="740" as="sourcePoint" />
            <mxPoint x="350" y="781" as="targetPoint" />
          </mxGeometry>
        </mxCell>
        <mxCell id="6Q3wrWz7BgHaqSBON38d-52" value="PaintPicture(painter: CCanvasPainter&amp;amp; )" style="html=1;whiteSpace=wrap;" parent="1" vertex="1">
          <mxGeometry x="747" y="750" width="340" height="50" as="geometry" />
        </mxCell>
        <mxCell id="6Q3wrWz7BgHaqSBON38d-53" value="PaintPictureOnModernGraphicsRenderer()" style="html=1;whiteSpace=wrap;" parent="1" vertex="1">
          <mxGeometry x="750" y="830" width="330" height="50" as="geometry" />
        </mxCell>
        <mxCell id="6Q3wrWz7BgHaqSBON38d-54" value="PaintPictureOnCanvas()" style="html=1;whiteSpace=wrap;" parent="1" vertex="1">
          <mxGeometry x="750" y="900" width="330" height="50" as="geometry" />
        </mxCell>
        <mxCell id="6Q3wrWz7BgHaqSBON38d-55" value="Use" style="endArrow=open;endSize=12;dashed=1;html=1;rounded=0;entryX=0.649;entryY=1.158;entryDx=0;entryDy=0;entryPerimeter=0;" parent="1" source="6Q3wrWz7BgHaqSBON38d-52" target="6Q3wrWz7BgHaqSBON38d-34" edge="1">
          <mxGeometry width="160" relative="1" as="geometry">
            <mxPoint x="640" y="670" as="sourcePoint" />
            <mxPoint x="800" y="670" as="targetPoint" />
          </mxGeometry>
        </mxCell>
        <mxCell id="6Q3wrWz7BgHaqSBON38d-56" value="Extends" style="endArrow=block;endSize=16;endFill=0;html=1;rounded=0;exitX=0;exitY=0.5;exitDx=0;exitDy=0;entryX=1;entryY=0.109;entryDx=0;entryDy=0;entryPerimeter=0;" parent="1" source="6Q3wrWz7BgHaqSBON38d-44" target="6Q3wrWz7BgHaqSBON38d-37" edge="1">
          <mxGeometry width="160" relative="1" as="geometry">
            <mxPoint x="490" y="570" as="sourcePoint" />
            <mxPoint x="650" y="570" as="targetPoint" />
          </mxGeometry>
        </mxCell>
      </root>
    </mxGraphModel>
  </diagram>
  <diagram id="k7HaPkbQxb3bE8XnpksX" name="Страница — 3">
    <mxGraphModel dx="1829" dy="575" grid="1" gridSize="10" guides="1" tooltips="1" connect="1" arrows="1" fold="1" page="1" pageScale="1" pageWidth="827" pageHeight="1169" math="0" shadow="0">
      <root>
        <mxCell id="0" />
        <mxCell id="1" parent="0" />
        <mxCell id="nsdFkRQ1n3MxXBjlfcir-1" value="graphics_lib" style="shape=folder;fontStyle=1;spacingTop=10;tabWidth=40;tabHeight=14;tabPosition=left;html=1;whiteSpace=wrap;verticalAlign=top;" vertex="1" parent="1">
          <mxGeometry x="-20" y="130" width="270" height="350" as="geometry" />
        </mxCell>
        <mxCell id="nsdFkRQ1n3MxXBjlfcir-2" value="shape_drawing_lib" style="shape=folder;fontStyle=1;spacingTop=10;tabWidth=40;tabHeight=14;tabPosition=left;html=1;whiteSpace=wrap;verticalAlign=top;" vertex="1" parent="1">
          <mxGeometry x="385" y="110" width="745" height="540" as="geometry" />
        </mxCell>
        <mxCell id="nsdFkRQ1n3MxXBjlfcir-3" value="modern_graphics_lib" style="shape=folder;fontStyle=1;spacingTop=10;tabWidth=40;tabHeight=14;tabPosition=left;html=1;whiteSpace=wrap;verticalAlign=top;" vertex="1" parent="1">
          <mxGeometry x="-280" y="530" width="470" height="370" as="geometry" />
        </mxCell>
        <mxCell id="nsdFkRQ1n3MxXBjlfcir-4" value="app" style="shape=folder;fontStyle=1;spacingTop=10;tabWidth=40;tabHeight=14;tabPosition=left;html=1;whiteSpace=wrap;verticalAlign=top;" vertex="1" parent="1">
          <mxGeometry x="747" y="678" width="340" height="370" as="geometry" />
        </mxCell>
        <mxCell id="nsdFkRQ1n3MxXBjlfcir-5" value="&lt;p style=&quot;margin:0px;margin-top:4px;text-align:center;&quot;&gt;&lt;i&gt;&amp;lt;&amp;lt;Interface&amp;gt;&amp;gt;&lt;/i&gt;&lt;br&gt;&lt;b&gt;ICanvas&lt;/b&gt;&lt;br&gt;&lt;/p&gt;&lt;hr size=&quot;1&quot;&gt;&lt;p style=&quot;margin:0px;margin-left:4px;&quot;&gt;&lt;span style=&quot;background-color: initial;&quot;&gt;+ MoveTo(x: int, y: int)&lt;/span&gt;&lt;br&gt;&lt;/p&gt;&lt;p style=&quot;margin:0px;margin-left:4px;&quot;&gt;+ LineTo(x: int, y: int)&lt;/p&gt;&lt;p style=&quot;margin:0px;margin-left:4px;&quot;&gt;+ SetColor(rgbColor : uint32_t)&lt;/p&gt;" style="verticalAlign=top;align=left;overflow=fill;fontSize=12;fontFamily=Helvetica;html=1;whiteSpace=wrap;" vertex="1" parent="1">
          <mxGeometry x="20" y="190" width="190" height="90" as="geometry" />
        </mxCell>
        <mxCell id="nsdFkRQ1n3MxXBjlfcir-6" value="CCanvas" style="swimlane;fontStyle=0;childLayout=stackLayout;horizontal=1;startSize=26;fillColor=none;horizontalStack=0;resizeParent=1;resizeParentMax=0;resizeLast=0;collapsible=1;marginBottom=0;whiteSpace=wrap;html=1;" vertex="1" parent="1">
          <mxGeometry x="50" y="336" width="180" height="104" as="geometry" />
        </mxCell>
        <mxCell id="nsdFkRQ1n3MxXBjlfcir-7" value="+ MoveTo(x: int, y: int)" style="text;strokeColor=none;fillColor=none;align=left;verticalAlign=top;spacingLeft=4;spacingRight=4;overflow=hidden;rotatable=0;points=[[0,0.5],[1,0.5]];portConstraint=eastwest;whiteSpace=wrap;html=1;" vertex="1" parent="nsdFkRQ1n3MxXBjlfcir-6">
          <mxGeometry y="26" width="180" height="26" as="geometry" />
        </mxCell>
        <mxCell id="nsdFkRQ1n3MxXBjlfcir-8" value="+ LineTo(x: int, y: int)" style="text;strokeColor=none;fillColor=none;align=left;verticalAlign=top;spacingLeft=4;spacingRight=4;overflow=hidden;rotatable=0;points=[[0,0.5],[1,0.5]];portConstraint=eastwest;whiteSpace=wrap;html=1;" vertex="1" parent="nsdFkRQ1n3MxXBjlfcir-6">
          <mxGeometry y="52" width="180" height="26" as="geometry" />
        </mxCell>
        <mxCell id="nsdFkRQ1n3MxXBjlfcir-56" value="+ SetColor(rgbColor : uint32_t)" style="text;strokeColor=none;fillColor=none;align=left;verticalAlign=top;spacingLeft=4;spacingRight=4;overflow=hidden;rotatable=0;points=[[0,0.5],[1,0.5]];portConstraint=eastwest;whiteSpace=wrap;html=1;" vertex="1" parent="nsdFkRQ1n3MxXBjlfcir-6">
          <mxGeometry y="78" width="180" height="26" as="geometry" />
        </mxCell>
        <mxCell id="nsdFkRQ1n3MxXBjlfcir-9" value="" style="endArrow=block;dashed=1;endFill=0;endSize=12;html=1;rounded=0;exitX=0.5;exitY=0;exitDx=0;exitDy=0;entryX=0.5;entryY=1;entryDx=0;entryDy=0;" edge="1" parent="1" source="nsdFkRQ1n3MxXBjlfcir-6" target="nsdFkRQ1n3MxXBjlfcir-5">
          <mxGeometry width="160" relative="1" as="geometry">
            <mxPoint x="330" y="260" as="sourcePoint" />
            <mxPoint x="490" y="260" as="targetPoint" />
          </mxGeometry>
        </mxCell>
        <mxCell id="nsdFkRQ1n3MxXBjlfcir-10" value="Point" style="swimlane;fontStyle=0;childLayout=stackLayout;horizontal=1;startSize=26;fillColor=none;horizontalStack=0;resizeParent=1;resizeParentMax=0;resizeLast=0;collapsible=1;marginBottom=0;whiteSpace=wrap;html=1;" vertex="1" parent="1">
          <mxGeometry x="947" y="290" width="140" height="78" as="geometry" />
        </mxCell>
        <mxCell id="nsdFkRQ1n3MxXBjlfcir-11" value="+ x: int" style="text;strokeColor=none;fillColor=none;align=left;verticalAlign=top;spacingLeft=4;spacingRight=4;overflow=hidden;rotatable=0;points=[[0,0.5],[1,0.5]];portConstraint=eastwest;whiteSpace=wrap;html=1;" vertex="1" parent="nsdFkRQ1n3MxXBjlfcir-10">
          <mxGeometry y="26" width="140" height="26" as="geometry" />
        </mxCell>
        <mxCell id="nsdFkRQ1n3MxXBjlfcir-12" value="+ y: int" style="text;strokeColor=none;fillColor=none;align=left;verticalAlign=top;spacingLeft=4;spacingRight=4;overflow=hidden;rotatable=0;points=[[0,0.5],[1,0.5]];portConstraint=eastwest;whiteSpace=wrap;html=1;" vertex="1" parent="nsdFkRQ1n3MxXBjlfcir-10">
          <mxGeometry y="52" width="140" height="26" as="geometry" />
        </mxCell>
        <mxCell id="nsdFkRQ1n3MxXBjlfcir-13" value="CPoint" style="swimlane;fontStyle=0;childLayout=stackLayout;horizontal=1;startSize=26;fillColor=none;horizontalStack=0;resizeParent=1;resizeParentMax=0;resizeLast=0;collapsible=1;marginBottom=0;whiteSpace=wrap;html=1;" vertex="1" parent="1">
          <mxGeometry x="-60" y="600" width="140" height="78" as="geometry" />
        </mxCell>
        <mxCell id="nsdFkRQ1n3MxXBjlfcir-14" value="+ x: int" style="text;strokeColor=none;fillColor=none;align=left;verticalAlign=top;spacingLeft=4;spacingRight=4;overflow=hidden;rotatable=0;points=[[0,0.5],[1,0.5]];portConstraint=eastwest;whiteSpace=wrap;html=1;" vertex="1" parent="nsdFkRQ1n3MxXBjlfcir-13">
          <mxGeometry y="26" width="140" height="26" as="geometry" />
        </mxCell>
        <mxCell id="nsdFkRQ1n3MxXBjlfcir-15" value="+ y: int" style="text;strokeColor=none;fillColor=none;align=left;verticalAlign=top;spacingLeft=4;spacingRight=4;overflow=hidden;rotatable=0;points=[[0,0.5],[1,0.5]];portConstraint=eastwest;whiteSpace=wrap;html=1;" vertex="1" parent="nsdFkRQ1n3MxXBjlfcir-13">
          <mxGeometry y="52" width="140" height="26" as="geometry" />
        </mxCell>
        <mxCell id="nsdFkRQ1n3MxXBjlfcir-16" value="&lt;p style=&quot;margin:0px;margin-top:4px;text-align:center;&quot;&gt;&lt;i&gt;&amp;lt;&amp;lt;Interface&amp;gt;&amp;gt;&lt;/i&gt;&lt;br&gt;&lt;b&gt;ICanvasDrawable&lt;/b&gt;&lt;br&gt;&lt;/p&gt;&lt;hr size=&quot;1&quot;&gt;&lt;p style=&quot;margin:0px;margin-left:4px;&quot;&gt;&lt;/p&gt;&lt;p style=&quot;margin:0px;margin-left:4px;&quot;&gt;+ Draw(canvas: ICanvas&amp;amp;)&lt;br&gt;&lt;/p&gt;" style="verticalAlign=top;align=left;overflow=fill;fontSize=12;fontFamily=Helvetica;html=1;whiteSpace=wrap;" vertex="1" parent="1">
          <mxGeometry x="450" y="250" width="190" height="90" as="geometry" />
        </mxCell>
        <mxCell id="nsdFkRQ1n3MxXBjlfcir-17" value="Use" style="endArrow=open;endSize=12;dashed=1;html=1;rounded=0;exitX=-0.003;exitY=0.362;exitDx=0;exitDy=0;exitPerimeter=0;entryX=1;entryY=0.75;entryDx=0;entryDy=0;" edge="1" parent="1" source="nsdFkRQ1n3MxXBjlfcir-16" target="nsdFkRQ1n3MxXBjlfcir-5">
          <mxGeometry width="160" relative="1" as="geometry">
            <mxPoint x="340" y="260" as="sourcePoint" />
            <mxPoint x="500" y="260" as="targetPoint" />
          </mxGeometry>
        </mxCell>
        <mxCell id="nsdFkRQ1n3MxXBjlfcir-18" value="CTriangle" style="swimlane;fontStyle=0;childLayout=stackLayout;horizontal=1;startSize=26;fillColor=none;horizontalStack=0;resizeParent=1;resizeParentMax=0;resizeLast=0;collapsible=1;marginBottom=0;whiteSpace=wrap;html=1;" vertex="1" parent="1">
          <mxGeometry x="640" y="440" width="180" height="138" as="geometry" />
        </mxCell>
        <mxCell id="nsdFkRQ1n3MxXBjlfcir-19" value="+ Draw(canvas: ICanvas&amp;amp;)" style="text;strokeColor=none;fillColor=none;align=left;verticalAlign=top;spacingLeft=4;spacingRight=4;overflow=hidden;rotatable=0;points=[[0,0.5],[1,0.5]];portConstraint=eastwest;whiteSpace=wrap;html=1;" vertex="1" parent="nsdFkRQ1n3MxXBjlfcir-18">
          <mxGeometry y="26" width="180" height="34" as="geometry" />
        </mxCell>
        <mxCell id="nsdFkRQ1n3MxXBjlfcir-20" value="- m_vertex1: Point&lt;br&gt;" style="text;strokeColor=none;fillColor=none;align=left;verticalAlign=top;spacingLeft=4;spacingRight=4;overflow=hidden;rotatable=0;points=[[0,0.5],[1,0.5]];portConstraint=eastwest;whiteSpace=wrap;html=1;" vertex="1" parent="nsdFkRQ1n3MxXBjlfcir-18">
          <mxGeometry y="60" width="180" height="26" as="geometry" />
        </mxCell>
        <mxCell id="nsdFkRQ1n3MxXBjlfcir-21" value="- m_vertex2: Point" style="text;strokeColor=none;fillColor=none;align=left;verticalAlign=top;spacingLeft=4;spacingRight=4;overflow=hidden;rotatable=0;points=[[0,0.5],[1,0.5]];portConstraint=eastwest;whiteSpace=wrap;html=1;" vertex="1" parent="nsdFkRQ1n3MxXBjlfcir-18">
          <mxGeometry y="86" width="180" height="26" as="geometry" />
        </mxCell>
        <mxCell id="nsdFkRQ1n3MxXBjlfcir-22" value="- m_vertex3: Point" style="text;strokeColor=none;fillColor=none;align=left;verticalAlign=top;spacingLeft=4;spacingRight=4;overflow=hidden;rotatable=0;points=[[0,0.5],[1,0.5]];portConstraint=eastwest;whiteSpace=wrap;html=1;" vertex="1" parent="nsdFkRQ1n3MxXBjlfcir-18">
          <mxGeometry y="112" width="180" height="26" as="geometry" />
        </mxCell>
        <mxCell id="nsdFkRQ1n3MxXBjlfcir-23" value="CRectangle" style="swimlane;fontStyle=0;childLayout=stackLayout;horizontal=1;startSize=26;fillColor=none;horizontalStack=0;resizeParent=1;resizeParentMax=0;resizeLast=0;collapsible=1;marginBottom=0;whiteSpace=wrap;html=1;" vertex="1" parent="1">
          <mxGeometry x="860" y="447" width="180" height="138" as="geometry" />
        </mxCell>
        <mxCell id="nsdFkRQ1n3MxXBjlfcir-24" value="+ Draw(canvas: ICanvas&amp;amp;)" style="text;strokeColor=none;fillColor=none;align=left;verticalAlign=top;spacingLeft=4;spacingRight=4;overflow=hidden;rotatable=0;points=[[0,0.5],[1,0.5]];portConstraint=eastwest;whiteSpace=wrap;html=1;" vertex="1" parent="nsdFkRQ1n3MxXBjlfcir-23">
          <mxGeometry y="26" width="180" height="34" as="geometry" />
        </mxCell>
        <mxCell id="nsdFkRQ1n3MxXBjlfcir-25" value="- m_leftTop: Point" style="text;strokeColor=none;fillColor=none;align=left;verticalAlign=top;spacingLeft=4;spacingRight=4;overflow=hidden;rotatable=0;points=[[0,0.5],[1,0.5]];portConstraint=eastwest;whiteSpace=wrap;html=1;" vertex="1" parent="nsdFkRQ1n3MxXBjlfcir-23">
          <mxGeometry y="60" width="180" height="26" as="geometry" />
        </mxCell>
        <mxCell id="nsdFkRQ1n3MxXBjlfcir-26" value="- m_weight: size_t" style="text;strokeColor=none;fillColor=none;align=left;verticalAlign=top;spacingLeft=4;spacingRight=4;overflow=hidden;rotatable=0;points=[[0,0.5],[1,0.5]];portConstraint=eastwest;whiteSpace=wrap;html=1;" vertex="1" parent="nsdFkRQ1n3MxXBjlfcir-23">
          <mxGeometry y="86" width="180" height="26" as="geometry" />
        </mxCell>
        <mxCell id="nsdFkRQ1n3MxXBjlfcir-27" value="- m_height: size_t" style="text;strokeColor=none;fillColor=none;align=left;verticalAlign=top;spacingLeft=4;spacingRight=4;overflow=hidden;rotatable=0;points=[[0,0.5],[1,0.5]];portConstraint=eastwest;whiteSpace=wrap;html=1;" vertex="1" parent="nsdFkRQ1n3MxXBjlfcir-23">
          <mxGeometry y="112" width="180" height="26" as="geometry" />
        </mxCell>
        <mxCell id="nsdFkRQ1n3MxXBjlfcir-32" value="CCanvasPainter" style="swimlane;fontStyle=0;childLayout=stackLayout;horizontal=1;startSize=26;fillColor=none;horizontalStack=0;resizeParent=1;resizeParentMax=0;resizeLast=0;collapsible=1;marginBottom=0;whiteSpace=wrap;html=1;" vertex="1" parent="1">
          <mxGeometry x="390" y="440" width="220" height="78" as="geometry" />
        </mxCell>
        <mxCell id="nsdFkRQ1n3MxXBjlfcir-33" value="+ Draw(drawable: ICanvasDrawable&amp;amp;)" style="text;strokeColor=none;fillColor=none;align=left;verticalAlign=top;spacingLeft=4;spacingRight=4;overflow=hidden;rotatable=0;points=[[0,0.5],[1,0.5]];portConstraint=eastwest;whiteSpace=wrap;html=1;" vertex="1" parent="nsdFkRQ1n3MxXBjlfcir-32">
          <mxGeometry y="26" width="220" height="26" as="geometry" />
        </mxCell>
        <mxCell id="nsdFkRQ1n3MxXBjlfcir-34" value="-&amp;nbsp;m_canvas: ICanvas&amp;amp;" style="text;strokeColor=none;fillColor=none;align=left;verticalAlign=top;spacingLeft=4;spacingRight=4;overflow=hidden;rotatable=0;points=[[0,0.5],[1,0.5]];portConstraint=eastwest;whiteSpace=wrap;html=1;" vertex="1" parent="nsdFkRQ1n3MxXBjlfcir-32">
          <mxGeometry y="52" width="220" height="26" as="geometry" />
        </mxCell>
        <mxCell id="nsdFkRQ1n3MxXBjlfcir-35" value="" style="endArrow=diamondThin;endFill=0;endSize=24;html=1;rounded=0;entryX=0.5;entryY=0;entryDx=0;entryDy=0;" edge="1" parent="1" source="nsdFkRQ1n3MxXBjlfcir-5" target="nsdFkRQ1n3MxXBjlfcir-32">
          <mxGeometry width="160" relative="1" as="geometry">
            <mxPoint x="360" y="390" as="sourcePoint" />
            <mxPoint x="520" y="390" as="targetPoint" />
          </mxGeometry>
        </mxCell>
        <mxCell id="nsdFkRQ1n3MxXBjlfcir-36" value="Use" style="endArrow=open;endSize=12;dashed=1;html=1;rounded=0;exitX=0.646;exitY=0.024;exitDx=0;exitDy=0;exitPerimeter=0;entryX=0.5;entryY=1;entryDx=0;entryDy=0;" edge="1" parent="1" source="nsdFkRQ1n3MxXBjlfcir-32" target="nsdFkRQ1n3MxXBjlfcir-16">
          <mxGeometry width="160" relative="1" as="geometry">
            <mxPoint x="360" y="390" as="sourcePoint" />
            <mxPoint x="520" y="390" as="targetPoint" />
          </mxGeometry>
        </mxCell>
        <mxCell id="nsdFkRQ1n3MxXBjlfcir-37" value="CModernGraphicsRenderer" style="swimlane;fontStyle=0;childLayout=stackLayout;horizontal=1;startSize=26;fillColor=none;horizontalStack=0;resizeParent=1;resizeParentMax=0;resizeLast=0;collapsible=1;marginBottom=0;whiteSpace=wrap;html=1;" vertex="1" parent="1">
          <mxGeometry x="-260" y="712" width="400" height="156" as="geometry" />
        </mxCell>
        <mxCell id="nsdFkRQ1n3MxXBjlfcir-38" value="+ BeginDraw()" style="text;strokeColor=none;fillColor=none;align=left;verticalAlign=top;spacingLeft=4;spacingRight=4;overflow=hidden;rotatable=0;points=[[0,0.5],[1,0.5]];portConstraint=eastwest;whiteSpace=wrap;html=1;" vertex="1" parent="nsdFkRQ1n3MxXBjlfcir-37">
          <mxGeometry y="26" width="400" height="26" as="geometry" />
        </mxCell>
        <mxCell id="nsdFkRQ1n3MxXBjlfcir-39" value="+ DrawLine(start : const CPoint, end: const CPoint, color: CRGBAColor)" style="text;strokeColor=none;fillColor=none;align=left;verticalAlign=top;spacingLeft=4;spacingRight=4;overflow=hidden;rotatable=0;points=[[0,0.5],[1,0.5]];portConstraint=eastwest;whiteSpace=wrap;html=1;" vertex="1" parent="nsdFkRQ1n3MxXBjlfcir-37">
          <mxGeometry y="52" width="400" height="26" as="geometry" />
        </mxCell>
        <mxCell id="nsdFkRQ1n3MxXBjlfcir-40" value="+&amp;nbsp;EndDraw()" style="text;strokeColor=none;fillColor=none;align=left;verticalAlign=top;spacingLeft=4;spacingRight=4;overflow=hidden;rotatable=0;points=[[0,0.5],[1,0.5]];portConstraint=eastwest;whiteSpace=wrap;html=1;" vertex="1" parent="nsdFkRQ1n3MxXBjlfcir-37">
          <mxGeometry y="78" width="400" height="26" as="geometry" />
        </mxCell>
        <mxCell id="nsdFkRQ1n3MxXBjlfcir-41" value="- m_out: ostream&amp;amp;" style="text;strokeColor=none;fillColor=none;align=left;verticalAlign=top;spacingLeft=4;spacingRight=4;overflow=hidden;rotatable=0;points=[[0,0.5],[1,0.5]];portConstraint=eastwest;whiteSpace=wrap;html=1;" vertex="1" parent="nsdFkRQ1n3MxXBjlfcir-37">
          <mxGeometry y="104" width="400" height="26" as="geometry" />
        </mxCell>
        <mxCell id="nsdFkRQ1n3MxXBjlfcir-42" value="- m_drawinf: bool" style="text;strokeColor=none;fillColor=none;align=left;verticalAlign=top;spacingLeft=4;spacingRight=4;overflow=hidden;rotatable=0;points=[[0,0.5],[1,0.5]];portConstraint=eastwest;whiteSpace=wrap;html=1;" vertex="1" parent="nsdFkRQ1n3MxXBjlfcir-37">
          <mxGeometry y="130" width="400" height="26" as="geometry" />
        </mxCell>
        <mxCell id="nsdFkRQ1n3MxXBjlfcir-43" value="ModernGraphicsLibAdapter" style="swimlane;fontStyle=0;childLayout=stackLayout;horizontal=1;startSize=26;fillColor=none;horizontalStack=0;resizeParent=1;resizeParentMax=0;resizeLast=0;collapsible=1;marginBottom=0;whiteSpace=wrap;html=1;" vertex="1" parent="1">
          <mxGeometry x="350" y="690" width="250" height="182" as="geometry" />
        </mxCell>
        <mxCell id="nsdFkRQ1n3MxXBjlfcir-44" value="+ MoveTo(x: int, y: int)" style="text;strokeColor=none;fillColor=none;align=left;verticalAlign=top;spacingLeft=4;spacingRight=4;overflow=hidden;rotatable=0;points=[[0,0.5],[1,0.5]];portConstraint=eastwest;whiteSpace=wrap;html=1;" vertex="1" parent="nsdFkRQ1n3MxXBjlfcir-43">
          <mxGeometry y="26" width="250" height="26" as="geometry" />
        </mxCell>
        <mxCell id="nsdFkRQ1n3MxXBjlfcir-45" value="+ LineTo(x: int, y: int)" style="text;strokeColor=none;fillColor=none;align=left;verticalAlign=top;spacingLeft=4;spacingRight=4;overflow=hidden;rotatable=0;points=[[0,0.5],[1,0.5]];portConstraint=eastwest;whiteSpace=wrap;html=1;" vertex="1" parent="nsdFkRQ1n3MxXBjlfcir-43">
          <mxGeometry y="52" width="250" height="26" as="geometry" />
        </mxCell>
        <mxCell id="cLewP2EQI-4dBKu7dQYr-8" value="+ SetColor(rgbColor : uint32_t)" style="text;strokeColor=none;fillColor=none;align=left;verticalAlign=top;spacingLeft=4;spacingRight=4;overflow=hidden;rotatable=0;points=[[0,0.5],[1,0.5]];portConstraint=eastwest;whiteSpace=wrap;html=1;" vertex="1" parent="nsdFkRQ1n3MxXBjlfcir-43">
          <mxGeometry y="78" width="250" height="26" as="geometry" />
        </mxCell>
        <mxCell id="cLewP2EQI-4dBKu7dQYr-9" value="- m_color: CRGBAColor" style="text;strokeColor=none;fillColor=none;align=left;verticalAlign=top;spacingLeft=4;spacingRight=4;overflow=hidden;rotatable=0;points=[[0,0.5],[1,0.5]];portConstraint=eastwest;whiteSpace=wrap;html=1;" vertex="1" parent="nsdFkRQ1n3MxXBjlfcir-43">
          <mxGeometry y="104" width="250" height="26" as="geometry" />
        </mxCell>
        <mxCell id="nsdFkRQ1n3MxXBjlfcir-46" value="- m_renderer:&amp;nbsp;CModernGraphicsRenderer&amp;amp;" style="text;strokeColor=none;fillColor=none;align=left;verticalAlign=top;spacingLeft=4;spacingRight=4;overflow=hidden;rotatable=0;points=[[0,0.5],[1,0.5]];portConstraint=eastwest;whiteSpace=wrap;html=1;" vertex="1" parent="nsdFkRQ1n3MxXBjlfcir-43">
          <mxGeometry y="130" width="250" height="26" as="geometry" />
        </mxCell>
        <mxCell id="nsdFkRQ1n3MxXBjlfcir-47" value="- m_drawingPos:&amp;nbsp;CPoint&amp;amp;" style="text;strokeColor=none;fillColor=none;align=left;verticalAlign=top;spacingLeft=4;spacingRight=4;overflow=hidden;rotatable=0;points=[[0,0.5],[1,0.5]];portConstraint=eastwest;whiteSpace=wrap;html=1;" vertex="1" parent="nsdFkRQ1n3MxXBjlfcir-43">
          <mxGeometry y="156" width="250" height="26" as="geometry" />
        </mxCell>
        <mxCell id="nsdFkRQ1n3MxXBjlfcir-48" value="Use" style="endArrow=open;endSize=12;dashed=1;html=1;rounded=0;entryX=1;entryY=0.5;entryDx=0;entryDy=0;exitX=0.75;exitY=0;exitDx=0;exitDy=0;" edge="1" parent="1" source="nsdFkRQ1n3MxXBjlfcir-37" target="nsdFkRQ1n3MxXBjlfcir-15">
          <mxGeometry width="160" relative="1" as="geometry">
            <mxPoint x="190" y="720" as="sourcePoint" />
            <mxPoint x="350" y="720" as="targetPoint" />
          </mxGeometry>
        </mxCell>
        <mxCell id="nsdFkRQ1n3MxXBjlfcir-49" value="" style="endArrow=block;dashed=1;endFill=0;endSize=12;html=1;rounded=0;entryX=0.136;entryY=0.994;entryDx=0;entryDy=0;entryPerimeter=0;exitX=0.131;exitY=-0.033;exitDx=0;exitDy=0;edgeStyle=orthogonalEdgeStyle;exitPerimeter=0;" edge="1" parent="1" source="nsdFkRQ1n3MxXBjlfcir-43" target="nsdFkRQ1n3MxXBjlfcir-5">
          <mxGeometry width="160" relative="1" as="geometry">
            <mxPoint x="330" y="720" as="sourcePoint" />
            <mxPoint x="270" y="460" as="targetPoint" />
            <Array as="points">
              <mxPoint x="383" y="660" />
              <mxPoint x="350" y="660" />
              <mxPoint x="350" y="520" />
              <mxPoint x="46" y="520" />
            </Array>
          </mxGeometry>
        </mxCell>
        <mxCell id="nsdFkRQ1n3MxXBjlfcir-50" value="" style="endArrow=diamondThin;endFill=1;endSize=24;html=1;rounded=0;entryX=0;entryY=0.5;entryDx=0;entryDy=0;exitX=1;exitY=0.5;exitDx=0;exitDy=0;" edge="1" parent="1" source="nsdFkRQ1n3MxXBjlfcir-14" target="nsdFkRQ1n3MxXBjlfcir-46">
          <mxGeometry width="160" relative="1" as="geometry">
            <mxPoint x="290" y="740" as="sourcePoint" />
            <mxPoint x="450" y="740" as="targetPoint" />
          </mxGeometry>
        </mxCell>
        <mxCell id="cLewP2EQI-4dBKu7dQYr-10" value="" style="endArrow=diamondThin;endFill=1;endSize=24;html=1;rounded=0;entryX=0;entryY=0.5;entryDx=0;entryDy=0;exitX=0.999;exitY=-0.085;exitDx=0;exitDy=0;exitPerimeter=0;edgeStyle=orthogonalEdgeStyle;" edge="1" parent="1" source="cLewP2EQI-4dBKu7dQYr-4" target="nsdFkRQ1n3MxXBjlfcir-47">
          <mxGeometry width="160" relative="1" as="geometry">
            <mxPoint x="90" y="649" as="sourcePoint" />
            <mxPoint x="360" y="843" as="targetPoint" />
            <Array as="points">
              <mxPoint x="-120" y="570" />
              <mxPoint x="210" y="570" />
              <mxPoint x="210" y="859" />
            </Array>
          </mxGeometry>
        </mxCell>
        <mxCell id="nsdFkRQ1n3MxXBjlfcir-51" value="" style="endArrow=diamondThin;endFill=0;endSize=24;html=1;rounded=0;entryX=-0.008;entryY=0.172;entryDx=0;entryDy=0;exitX=0.974;exitY=0.064;exitDx=0;exitDy=0;exitPerimeter=0;entryPerimeter=0;" edge="1" parent="1" source="nsdFkRQ1n3MxXBjlfcir-39" target="nsdFkRQ1n3MxXBjlfcir-43">
          <mxGeometry width="160" relative="1" as="geometry">
            <mxPoint x="290" y="740" as="sourcePoint" />
            <mxPoint x="450" y="740" as="targetPoint" />
          </mxGeometry>
        </mxCell>
        <mxCell id="nsdFkRQ1n3MxXBjlfcir-52" value="PaintPicture(painter: CCanvasPainter&amp;amp; )" style="html=1;whiteSpace=wrap;" vertex="1" parent="1">
          <mxGeometry x="747" y="750" width="340" height="50" as="geometry" />
        </mxCell>
        <mxCell id="nsdFkRQ1n3MxXBjlfcir-53" value="PaintPictureOnModernGraphicsRenderer()" style="html=1;whiteSpace=wrap;" vertex="1" parent="1">
          <mxGeometry x="750" y="830" width="330" height="50" as="geometry" />
        </mxCell>
        <mxCell id="nsdFkRQ1n3MxXBjlfcir-54" value="PaintPictureOnCanvas()" style="html=1;whiteSpace=wrap;" vertex="1" parent="1">
          <mxGeometry x="750" y="900" width="330" height="50" as="geometry" />
        </mxCell>
        <mxCell id="nsdFkRQ1n3MxXBjlfcir-55" value="Use" style="endArrow=open;endSize=12;dashed=1;html=1;rounded=0;entryX=0.649;entryY=1.158;entryDx=0;entryDy=0;entryPerimeter=0;" edge="1" parent="1" source="nsdFkRQ1n3MxXBjlfcir-52" target="nsdFkRQ1n3MxXBjlfcir-34">
          <mxGeometry width="160" relative="1" as="geometry">
            <mxPoint x="640" y="670" as="sourcePoint" />
            <mxPoint x="800" y="670" as="targetPoint" />
          </mxGeometry>
        </mxCell>
        <mxCell id="nsdFkRQ1n3MxXBjlfcir-57" value="CShape" style="swimlane;fontStyle=0;childLayout=stackLayout;horizontal=1;startSize=26;fillColor=none;horizontalStack=0;resizeParent=1;resizeParentMax=0;resizeLast=0;collapsible=1;marginBottom=0;whiteSpace=wrap;html=1;" vertex="1" parent="1">
          <mxGeometry x="780" y="202" width="140" height="78" as="geometry" />
        </mxCell>
        <mxCell id="nsdFkRQ1n3MxXBjlfcir-58" value="+ GetColor(): uint32_t" style="text;strokeColor=none;fillColor=none;align=left;verticalAlign=top;spacingLeft=4;spacingRight=4;overflow=hidden;rotatable=0;points=[[0,0.5],[1,0.5]];portConstraint=eastwest;whiteSpace=wrap;html=1;" vertex="1" parent="nsdFkRQ1n3MxXBjlfcir-57">
          <mxGeometry y="26" width="140" height="26" as="geometry" />
        </mxCell>
        <mxCell id="nsdFkRQ1n3MxXBjlfcir-59" value="- m_color: uint32_t" style="text;strokeColor=none;fillColor=none;align=left;verticalAlign=top;spacingLeft=4;spacingRight=4;overflow=hidden;rotatable=0;points=[[0,0.5],[1,0.5]];portConstraint=eastwest;whiteSpace=wrap;html=1;" vertex="1" parent="nsdFkRQ1n3MxXBjlfcir-57">
          <mxGeometry y="52" width="140" height="26" as="geometry" />
        </mxCell>
        <mxCell id="nsdFkRQ1n3MxXBjlfcir-61" value="" style="endArrow=block;dashed=1;endFill=0;endSize=12;html=1;rounded=0;entryX=1.012;entryY=0.64;entryDx=0;entryDy=0;entryPerimeter=0;exitX=0;exitY=0.5;exitDx=0;exitDy=0;" edge="1" parent="1" source="nsdFkRQ1n3MxXBjlfcir-58" target="nsdFkRQ1n3MxXBjlfcir-16">
          <mxGeometry width="160" relative="1" as="geometry">
            <mxPoint x="550" y="460" as="sourcePoint" />
            <mxPoint x="710" y="460" as="targetPoint" />
          </mxGeometry>
        </mxCell>
        <mxCell id="nsdFkRQ1n3MxXBjlfcir-62" value="Extends" style="endArrow=block;endSize=16;endFill=0;html=1;rounded=0;entryX=0.17;entryY=1.077;entryDx=0;entryDy=0;entryPerimeter=0;exitX=0.457;exitY=-0.012;exitDx=0;exitDy=0;exitPerimeter=0;" edge="1" parent="1" source="nsdFkRQ1n3MxXBjlfcir-18" target="nsdFkRQ1n3MxXBjlfcir-59">
          <mxGeometry width="160" relative="1" as="geometry">
            <mxPoint x="550" y="460" as="sourcePoint" />
            <mxPoint x="710" y="460" as="targetPoint" />
          </mxGeometry>
        </mxCell>
        <mxCell id="nsdFkRQ1n3MxXBjlfcir-63" value="Extends" style="endArrow=block;endSize=16;endFill=0;html=1;rounded=0;entryX=0.57;entryY=1.046;entryDx=0;entryDy=0;entryPerimeter=0;exitX=0.5;exitY=0;exitDx=0;exitDy=0;" edge="1" parent="1" source="nsdFkRQ1n3MxXBjlfcir-23" target="nsdFkRQ1n3MxXBjlfcir-59">
          <mxGeometry width="160" relative="1" as="geometry">
            <mxPoint x="712" y="458" as="sourcePoint" />
            <mxPoint x="831" y="341" as="targetPoint" />
          </mxGeometry>
        </mxCell>
        <mxCell id="cLewP2EQI-4dBKu7dQYr-1" value="" style="endArrow=diamondThin;endFill=0;endSize=24;html=1;rounded=0;entryX=0.75;entryY=0;entryDx=0;entryDy=0;exitX=0;exitY=0.5;exitDx=0;exitDy=0;" edge="1" parent="1" source="nsdFkRQ1n3MxXBjlfcir-11" target="nsdFkRQ1n3MxXBjlfcir-18">
          <mxGeometry width="160" relative="1" as="geometry">
            <mxPoint x="530" y="490" as="sourcePoint" />
            <mxPoint x="690" y="490" as="targetPoint" />
          </mxGeometry>
        </mxCell>
        <mxCell id="cLewP2EQI-4dBKu7dQYr-2" value="" style="endArrow=diamondThin;endFill=0;endSize=24;html=1;rounded=0;" edge="1" parent="1" source="nsdFkRQ1n3MxXBjlfcir-12" target="nsdFkRQ1n3MxXBjlfcir-23">
          <mxGeometry width="160" relative="1" as="geometry">
            <mxPoint x="957" y="339" as="sourcePoint" />
            <mxPoint x="785" y="450" as="targetPoint" />
          </mxGeometry>
        </mxCell>
        <mxCell id="cLewP2EQI-4dBKu7dQYr-3" value="CRGBAColor" style="swimlane;fontStyle=0;childLayout=stackLayout;horizontal=1;startSize=26;fillColor=none;horizontalStack=0;resizeParent=1;resizeParentMax=0;resizeLast=0;collapsible=1;marginBottom=0;whiteSpace=wrap;html=1;" vertex="1" parent="1">
          <mxGeometry x="-260" y="587" width="140" height="52" as="geometry" />
        </mxCell>
        <mxCell id="cLewP2EQI-4dBKu7dQYr-4" value="- r, g, b, a: float" style="text;strokeColor=none;fillColor=none;align=left;verticalAlign=top;spacingLeft=4;spacingRight=4;overflow=hidden;rotatable=0;points=[[0,0.5],[1,0.5]];portConstraint=eastwest;whiteSpace=wrap;html=1;" vertex="1" parent="cLewP2EQI-4dBKu7dQYr-3">
          <mxGeometry y="26" width="140" height="26" as="geometry" />
        </mxCell>
        <mxCell id="cLewP2EQI-4dBKu7dQYr-7" value="Use" style="endArrow=open;endSize=12;dashed=1;html=1;rounded=0;entryX=0.661;entryY=0.992;entryDx=0;entryDy=0;entryPerimeter=0;" edge="1" parent="1" source="nsdFkRQ1n3MxXBjlfcir-37" target="cLewP2EQI-4dBKu7dQYr-4">
          <mxGeometry width="160" relative="1" as="geometry">
            <mxPoint x="80" y="770" as="sourcePoint" />
            <mxPoint x="240" y="770" as="targetPoint" />
          </mxGeometry>
        </mxCell>
      </root>
    </mxGraphModel>
  </diagram>
</mxfile>
